<svg id="Layer_1" data-name="Layer 1" xmlns="http://www.w3.org/2000/svg" viewBox="0 0 33 32"><defs><style>.cls-1{fill:#292929;}</style></defs><path class="cls-1" d="M33,15.65A4.56,4.56,0,0,1,28.61,20c-5,.57-8.58,2.59-8.92,8.34a3.69,3.69,0,0,1-4,3.64A3.59,3.59,0,0,1,12,28.43c-.17-2.54.85-3.95,3.47-4.45,4-.76,6.81-3,7.68-7.18.78-3.76-1.13-6.26-5-6.41-1.68-.07-3.3,0-3.71-2.14a2.55,2.55,0,0,1,1.9-3.12c1.9-.55,3,.74,3.61,2.35,1.28,3.13,3.67,3.34,6.61,2.94C30.55,9.89,33,11.87,33,15.65Z" transform="translate(0 0)"/><path class="cls-1" d="M0,8.54c.2-2.2,1.35-3.85,4-3.72C6.9,5,9.31,4.61,10.23,1.27A1.69,1.69,0,0,1,12.46.08a1.71,1.71,0,0,1,1.45,1.66C14,3,13.42,3.85,12.13,4,9.37,4.16,8,5.49,8.19,8.36c.16,3.1,1.91,4.88,4.59,5.88,1,.36,2.14.21,3.11.59A3,3,0,0,1,18,18.3a2.86,2.86,0,0,1-2.21,2.56c-1.55.38-3.22,0-3.58-1.69-1.06-5-4.22-6.53-9-6.44C1.12,12.77,0,11,0,8.54Z" transform="translate(0 0)"/></svg>