<svg width="30" height="31" viewBox="0 0 30 31" fill="none" xmlns="http://www.w3.org/2000/svg">
<mask id="mask0_521_20562" style="mask-type:alpha" maskUnits="userSpaceOnUse" x="4" y="4" width="23" height="23">
<path d="M25.7735 13.2842H15.3239V17.6061H21.338C20.7769 20.3519 18.4331 21.928 15.3239 21.928C11.6537 21.928 8.69714 18.9784 8.69714 15.3168C8.69714 11.6552 11.6537 8.70557 15.3239 8.70557C16.9037 8.70557 18.3309 9.26532 19.4531 10.1797L22.7148 6.92573C20.7265 5.19877 18.1784 4.13086 15.3239 4.13086C9.10566 4.13086 4.11035 9.11442 4.11035 15.3181C4.11035 21.5217 9.10566 26.5053 15.3239 26.5053C20.9307 26.5053 26.0282 22.4374 26.0282 15.3181C26.0282 14.6564 25.926 13.9445 25.7735 13.2842Z" fill="#D9D9D9"/>
</mask>
<g mask="url(#mask0_521_20562)">
<path d="M3.65332 21.9393V8.69727L12.0544 15.3638L3.65332 21.9393Z" fill="#FBBC05"/>
</g>
<mask id="mask1_521_20562" style="mask-type:alpha" maskUnits="userSpaceOnUse" x="4" y="4" width="23" height="23">
<path d="M25.7735 13.2842H15.3239V17.6061H21.338C20.7769 20.3519 18.4331 21.928 15.3239 21.928C11.6537 21.928 8.69714 18.9784 8.69714 15.3168C8.69714 11.6552 11.6537 8.70557 15.3239 8.70557C16.9037 8.70557 18.3309 9.26532 19.4531 10.1797L22.7148 6.92573C20.7265 5.19877 18.1784 4.13086 15.3239 4.13086C9.10566 4.13086 4.11035 9.11442 4.11035 15.3181C4.11035 21.5217 9.10566 26.5053 15.3239 26.5053C20.9307 26.5053 26.0282 22.4374 26.0282 15.3181C26.0282 14.6564 25.926 13.9445 25.7735 13.2842Z" fill="#D9D9D9"/>
</mask>
<g mask="url(#mask1_521_20562)">
<path d="M4.29199 9.42707L12.0546 15.3631L15.2509 12.5778L26.2098 10.7969V3.67383H4.29199V9.42707Z" fill="#EA4335"/>
</g>
<mask id="mask2_521_20562" style="mask-type:alpha" maskUnits="userSpaceOnUse" x="4" y="4" width="23" height="23">
<path d="M25.7735 13.2842H15.3239V17.6061H21.338C20.7769 20.3519 18.4331 21.928 15.3239 21.928C11.6537 21.928 8.69714 18.9784 8.69714 15.3168C8.69714 11.6552 11.6537 8.70557 15.3239 8.70557C16.9037 8.70557 18.3309 9.26532 19.4531 10.1797L22.7148 6.92573C20.7265 5.19877 18.1784 4.13086 15.3239 4.13086C9.10566 4.13086 4.11035 9.11442 4.11035 15.3181C4.11035 21.5217 9.10566 26.5053 15.3239 26.5053C20.9307 26.5053 26.0282 22.4374 26.0282 15.3181C26.0282 14.6564 25.926 13.9445 25.7735 13.2842Z" fill="#D9D9D9"/>
</mask>
<g mask="url(#mask2_521_20562)">
<path d="M4.11035 21.3778L17.809 10.6567L21.4163 11.1229L26.0282 4.13086V26.9619H4.11035V21.3778Z" fill="#34A853"/>
</g>
<mask id="mask3_521_20562" style="mask-type:alpha" maskUnits="userSpaceOnUse" x="4" y="4" width="23" height="23">
<path d="M25.7735 13.2842H15.3239V17.6061H21.338C20.7769 20.3519 18.4331 21.928 15.3239 21.928C11.6537 21.928 8.69714 18.9784 8.69714 15.3168C8.69714 11.6552 11.6537 8.70557 15.3239 8.70557C16.9037 8.70557 18.3309 9.26532 19.4531 10.1797L22.7148 6.92573C20.7265 5.19877 18.1784 4.13086 15.3239 4.13086C9.10566 4.13086 4.11035 9.11442 4.11035 15.3181C4.11035 21.5217 9.10566 26.5053 15.3239 26.5053C20.9307 26.5053 26.0282 22.4374 26.0282 15.3181C26.0282 14.6564 25.926 13.9445 25.7735 13.2842Z" fill="#D9D9D9"/>
</mask>
<g mask="url(#mask3_521_20562)">
<path d="M26.2103 26.3227L12.055 15.3638L10.2285 13.9939L26.2103 9.42773V26.3227Z" fill="#4285F4"/>
</g>
</svg>
