<svg width="129" height="90" viewBox="0 0 129 90" fill="none" xmlns="http://www.w3.org/2000/svg">
<path d="M122 64.1329L125.564 54L129 55.0884L124.382 65L122 64.1329Z" fill="#292929"/>
<path d="M8.53559 60C11.6725 60 14.2008 60.9301 16.1205 62.7902C18.0402 64.6504 19 67.0708 19 70.0517C19 73.06 18.055 75.4713 16.1651 77.2855C14.2752 79.0998 11.732 80.0046 8.53559 80H0V60H8.53559ZM8.53559 62.3011H2.4711V77.692H8.53559C10.9907 77.692 12.9206 77.0031 14.3255 75.6252C15.7304 74.2473 16.4339 72.3791 16.4362 70.0207C16.4362 67.7058 15.7212 65.8411 14.2912 64.4265C12.8612 63.0118 10.9426 62.3068 8.53559 62.3114V62.3011Z" fill="#292929"/>
<path d="M35 80V60H36.3203L49.4676 74.9371V60H52V79.9759H50.7146L37.5114 65.0387V79.9759L35 80Z" fill="#292929"/>
<path d="M70 80V60H72.5606V69.9759L84.3796 60H87.7393L79.4112 67.107L89 80H85.9103L77.5645 68.8235L72.5606 72.893V80H70Z" fill="#292929"/>
<path d="M99 81L107.176 65H108.76L117 81H114.309L112.217 76.9341H103.729L101.658 81H99ZM104.822 74.8174H111.113L107.986 68.6918L104.822 74.8174Z" fill="#292929"/>
<path d="M90 24.1712C89.6717 27.6157 87.6147 30.3083 83.3121 30.7943C75.6289 31.6651 70.2297 34.7249 69.7198 43.4601C69.5172 46.9115 66.9608 49.1496 63.5872 48.9922C60.6397 48.8558 58.2614 47.0514 58.0274 43.5755C57.7689 39.7289 59.3265 37.5783 63.3183 36.8195C69.3636 35.6655 73.6906 32.2735 75.0142 25.9232C76.2051 20.2127 73.296 16.4081 67.4602 16.1773C64.8968 16.0759 62.4277 16.1773 61.8061 12.9392C61.3416 10.5368 62.6163 8.78836 64.7118 8.19039C67.5999 7.36862 69.2099 9.32689 70.2087 11.7642C72.1505 16.52 75.7965 16.8347 80.2807 16.2298C86.2736 15.422 90.0105 18.4328 90 24.1712Z" fill="#292929"/>
<path d="M39 13.0208C39.2929 9.66536 41.0296 7.14262 44.9819 7.34641C49.3442 7.57127 52.9588 7.02316 54.3406 1.93552C54.7403 0.463335 56.0325 -0.313162 57.6864 0.119006C58.9717 0.470362 59.809 1.23281 59.8676 2.6558C59.9434 4.56015 59.1302 5.87422 57.1902 6.02531C53.0553 6.33801 51.0533 8.37237 51.2807 12.7432C51.5288 17.4584 54.1442 20.1815 58.1723 21.6993C59.6367 22.2474 61.3803 22.0261 62.831 22.5953C65.0776 23.4772 66.3112 25.234 65.9322 27.8867C65.6393 29.9456 64.4505 31.3335 62.6104 31.7903C60.2811 32.37 57.7864 31.8219 57.235 29.2113C55.6431 21.5904 50.9086 19.2644 43.7965 19.4014C40.6781 19.4612 39.0482 16.7417 39 13.0208Z" fill="#292929"/>
<path d="M40.3186 88.4881C40.0203 88.8583 39.5985 89.1146 39.1267 89.2126C38.6548 89.3107 38.1627 89.2442 37.7359 89.0248C37.4528 88.8732 37.2182 88.648 37.0582 88.3742C36.8955 88.1034 36.8097 87.7951 36.8097 87.4811C36.8066 87.2493 36.8525 87.0193 36.9445 86.8056C37.0365 86.5918 37.1726 86.3989 37.3443 86.2388C37.5523 86.056 37.7966 85.9171 38.062 85.8306C38.3274 85.7441 38.6082 85.7119 38.8869 85.7361C39.1657 85.7602 39.4363 85.8401 39.6819 85.9709C39.9276 86.1017 40.143 86.2804 40.3148 86.4961L40.3675 86.5622L41 86.1947L40.9511 86.1138C40.8176 85.88 40.637 85.675 40.4202 85.511C40.191 85.3499 39.9368 85.2258 39.6672 85.1435C39.3684 85.0474 39.0557 84.999 38.7411 85.0002C38.2582 84.9953 37.7817 85.109 37.3556 85.3309C36.9485 85.5461 36.6098 85.8666 36.3768 86.2571C36.1342 86.6434 36.004 87.0868 36.0003 87.5399C35.9951 87.8654 36.0593 88.1884 36.1889 88.4883C36.3186 88.7883 36.5108 89.0586 36.7533 89.282C37.0065 89.5196 37.3057 89.7054 37.6335 89.8285C37.9613 89.9516 38.311 90.0095 38.662 89.9987C39.1229 90.0081 39.5795 89.9111 39.9948 89.7157C40.3759 89.5368 40.701 89.2614 40.936 88.9182L40.9887 88.841L40.3562 88.4367L40.3186 88.4881Z" fill="#292929"/>
<path d="M47.5146 85.0008C47.1657 84.9918 46.8191 85.0588 46.4992 85.1973C46.1792 85.3357 45.8938 85.5422 45.6631 85.8021C45.23 86.2762 44.9933 86.8951 45.0001 87.535C45.007 88.1749 45.257 88.7886 45.7001 89.2534C45.9354 89.4899 46.2156 89.6777 46.5245 89.8059C46.8335 89.934 47.165 90 47.4998 90C47.8347 90 48.1662 89.934 48.4751 89.8059C48.784 89.6777 49.0643 89.4899 49.2995 89.2534C49.7429 88.788 49.993 88.1736 49.9999 87.5331C50.0067 86.8926 49.7699 86.2731 49.3366 85.7984C49.109 85.5426 48.8283 85.3389 48.5138 85.2012C48.1992 85.0635 47.8584 84.9951 47.5146 85.0008ZM47.5146 85.7653C47.7402 85.764 47.9635 85.809 48.1707 85.8975C48.3778 85.9861 48.5642 86.1163 48.7182 86.2799C48.9885 86.5574 49.1612 86.9141 49.2106 87.297C49.26 87.6798 49.1834 88.0683 48.9922 88.4044C48.8491 88.667 48.6349 88.8847 48.3738 89.0329C48.1108 89.1774 47.8152 89.2532 47.5146 89.2532C47.2141 89.2532 46.9185 89.1774 46.6555 89.0329C46.3944 88.8847 46.1802 88.667 46.0371 88.4044C45.8837 88.1368 45.8045 87.8337 45.8075 87.5259C45.803 87.2953 45.8452 87.0662 45.9318 86.8521C46.0183 86.6381 46.1473 86.4435 46.3111 86.2799C46.4636 86.1155 46.6492 85.9847 46.8559 85.8961C47.0626 85.8074 47.2858 85.7629 47.5109 85.7653H47.5146Z" fill="#292929"/>
<path d="M56.0064 88.3642L54.7252 85H54L55.9073 90H56.1054L58 85H57.2748L56.0064 88.3642Z" fill="#292929"/>
<path d="M67.9992 87.5465C68.0143 86.9613 67.8255 86.3886 67.4641 85.923C67.2326 85.6268 66.9328 85.3887 66.5894 85.2285C66.2459 85.0682 65.8686 84.9902 65.4884 85.001C65.1176 84.99 64.7496 85.0663 64.415 85.2235C64.0803 85.3807 63.789 85.6143 63.5651 85.9046C63.1943 86.3614 62.9948 86.9294 63.0001 87.5135C62.9986 88.1475 63.2358 88.7597 63.6661 89.2325C63.8993 89.4898 64.1887 89.6922 64.5126 89.8245C64.8366 89.9568 65.1867 90.0156 65.537 89.9965C65.8623 90.0019 66.1858 89.9483 66.4912 89.8385C66.7678 89.7296 67.0215 89.5715 67.2396 89.3721C67.485 89.1422 67.6865 88.871 67.8345 88.5713L67.8757 88.4905L67.2096 88.1452L67.1647 88.2224C67.0321 88.4531 66.8657 88.6635 66.6708 88.8468C66.5103 88.9799 66.3264 89.0832 66.1283 89.1517C65.9176 89.2289 65.6946 89.2687 65.4697 89.2692C65.251 89.2745 65.0336 89.2344 64.8317 89.1515C64.6299 89.0686 64.4482 88.9447 64.2985 88.788C63.9991 88.4758 63.8261 88.067 63.8121 87.6384H67.9992V87.5465ZM63.9019 86.9441C63.9896 86.6469 64.1547 86.3773 64.3808 86.1618C64.6877 85.8888 65.0894 85.7416 65.5034 85.7504C65.7622 85.7501 66.0179 85.8066 66.2517 85.9157C66.4734 86.0126 66.6693 86.1584 66.8242 86.3417C66.9614 86.5225 67.0629 86.7268 67.1236 86.9441H63.9019Z" fill="#292929"/>
<path d="M73.9565 85.2178C73.8304 85.3262 73.718 85.4591 73.6232 85.6119V85.1202H73V90H73.6232V88.3108C73.6063 87.7781 73.6335 87.2445 73.7043 86.7193C73.7529 86.4467 73.8593 86.197 74.0116 85.9986C74.1195 85.8637 74.2618 85.7849 74.4116 85.7771C74.486 85.7828 74.5588 85.807 74.6261 85.8484L74.6841 85.8822L75 85.2216L74.9333 85.1728C74.7858 85.0526 74.6138 84.9927 74.4396 85.0007C74.2654 85.0087 74.0971 85.0844 73.9565 85.2178Z" fill="#292929"/>
<path d="M88.5294 85.4826C88.1659 85.4804 87.8066 85.5529 87.4792 85.6944C87.2176 85.8109 86.981 85.9677 86.7803 86.1577V84H86V89.8774H86.7803V89.295C86.9703 89.4888 87.1968 89.6512 87.4496 89.7748C87.7789 89.9263 88.1444 90.0036 88.5146 89.9999C88.8407 90.0022 89.1638 89.9446 89.464 89.8308C89.7642 89.7169 90.0351 89.5492 90.2601 89.338C90.4965 89.1321 90.6839 88.8855 90.811 88.6131C90.9381 88.3407 91.0023 88.048 90.9997 87.7528C91.0051 87.4571 90.9444 87.1633 90.8212 86.8888C90.698 86.6143 90.5148 86.3646 90.2823 86.1544C90.0591 85.9386 89.7877 85.7673 89.4857 85.6515C89.1837 85.5358 88.8579 85.4782 88.5294 85.4826ZM90.1935 87.7263C90.1938 88.0036 90.1135 88.2762 89.9605 88.5173C89.8117 88.7585 89.5933 88.9596 89.3282 89.0997C89.0663 89.2352 88.769 89.306 88.4666 89.3049C88.2377 89.3094 88.0103 89.2711 87.7989 89.1925C87.5875 89.1138 87.3967 88.9966 87.2388 88.8482C87.0742 88.6984 86.945 88.5203 86.8592 88.3247C86.7735 88.129 86.7328 87.9199 86.7396 87.7098C86.7348 87.4302 86.8113 87.1542 86.9615 86.9089C87.1104 86.6709 87.3307 86.4749 87.5975 86.343C87.864 86.2051 88.1661 86.132 88.474 86.1312C88.7736 86.1322 89.0674 86.2053 89.3245 86.343C89.5889 86.4854 89.8069 86.6874 89.9568 86.9288C90.1124 87.1715 90.194 87.4465 90.1935 87.7263Z" fill="#292929"/>
<path d="M99.2271 85.7827C99.038 85.5667 98.8112 85.3863 98.5578 85.25C98.2274 85.0814 97.8605 84.9956 97.4891 85.0002C97.1624 84.9971 96.8386 85.0608 96.5377 85.1872C96.2368 85.3135 95.9653 85.5 95.74 85.7349C95.5035 85.9627 95.316 86.2357 95.1888 86.5376C95.0617 86.8395 94.9976 87.1638 95.0004 87.491C94.9947 87.8202 95.0556 88.1473 95.1795 88.4527C95.3034 88.7581 95.4877 89.0357 95.7215 89.2691C96.0765 89.6309 96.5367 89.8733 97.0373 89.9622C97.538 90.0511 98.0542 89.9822 98.5134 89.7651C98.7801 89.6291 99.0214 89.449 99.2271 89.2324V89.8643H100V85.0883H99.2271V85.7827ZM98.7649 86.2603C98.9292 86.4269 99.0581 86.6246 99.1439 86.8417C99.2296 87.0589 99.2705 87.2909 99.2641 87.5241C99.2689 87.8345 99.1924 88.1409 99.0422 88.4131C98.8936 88.6754 98.6747 88.8916 98.4099 89.0377C98.147 89.1893 97.8485 89.2692 97.5446 89.2692C97.2406 89.2692 96.9421 89.1893 96.6792 89.0377C96.4113 88.8828 96.1913 88.6579 96.0432 88.3874C95.8895 88.12 95.8086 87.8173 95.8086 87.5094C95.8086 87.2014 95.8895 86.8988 96.0432 86.6313C96.1912 86.3639 96.4098 86.1416 96.6755 85.9884C96.9385 85.8376 97.2372 85.759 97.5409 85.7607C97.766 85.7579 97.9894 85.8008 98.1973 85.8867C98.4052 85.9726 98.5933 86.0997 98.7501 86.2603H98.7649Z" fill="#292929"/>
<path d="M106.557 85.7401C106.891 85.7678 107.2 85.9234 107.421 86.1741L107.487 86.2367L108 85.7107L107.93 85.6481C107.585 85.2642 107.103 85.0315 106.587 85.0007C106.409 84.9949 106.232 85.0244 106.066 85.0875C105.9 85.1507 105.748 85.2462 105.62 85.3686C105.399 85.5895 105.263 85.8812 105.237 86.1921C105.211 86.503 105.295 86.8132 105.476 87.068C105.714 87.3527 106.015 87.5792 106.354 87.7301C106.617 87.844 106.859 88.0006 107.07 88.1936C107.163 88.3021 107.215 88.4405 107.214 88.5835C107.215 88.6726 107.195 88.7606 107.158 88.8414C107.12 88.9222 107.065 88.9936 106.996 89.0507C106.849 89.1854 106.654 89.258 106.454 89.253C106.279 89.2419 106.109 89.1934 105.955 89.1109C105.801 89.0284 105.667 88.9137 105.561 88.7748L105.491 88.6975L105 89.2566L105.048 89.3155C105.216 89.5307 105.432 89.7034 105.679 89.8194C105.929 89.9397 106.202 90.0013 106.48 89.9997C106.675 90.0037 106.869 89.9691 107.051 89.8977C107.233 89.8263 107.399 89.7197 107.539 89.584C107.675 89.4512 107.784 89.292 107.856 89.1162C107.929 88.9404 107.966 88.7517 107.963 88.5614C107.966 88.2825 107.877 88.0103 107.712 87.7853C107.455 87.4934 107.138 87.26 106.782 87.1011C106.529 86.9875 106.298 86.8306 106.1 86.6376C106.006 86.5374 105.954 86.4064 105.952 86.2698C105.953 86.1994 105.97 86.1301 106 86.0666C106.031 86.0031 106.075 85.9469 106.129 85.9019C106.186 85.8482 106.254 85.8063 106.327 85.7786C106.4 85.7508 106.479 85.7377 106.557 85.7401Z" fill="#292929"/>
<path d="M116.161 88.2187C116.031 88.45 115.866 88.6605 115.671 88.8431C115.51 88.9762 115.327 89.0795 115.128 89.148C114.918 89.2252 114.695 89.265 114.47 89.2655C114.251 89.2709 114.034 89.2307 113.832 89.1478C113.63 89.0649 113.448 88.941 113.299 88.7844C112.998 88.4729 112.825 88.0636 112.812 87.6347H116.999V87.5428C117.012 86.9592 116.823 86.3886 116.464 85.923C116.232 85.6265 115.932 85.3883 115.588 85.228C115.244 85.0677 114.866 84.9899 114.485 85.001C114.115 84.9903 113.747 85.0667 113.413 85.2239C113.079 85.3811 112.788 85.6145 112.565 85.9046C112.194 86.3614 111.995 86.9294 112 87.5135C111.999 88.1475 112.236 88.7597 112.666 89.2325C112.899 89.4898 113.189 89.6922 113.513 89.8245C113.837 89.9568 114.187 90.0156 114.537 89.9965C114.862 90.0019 115.186 89.9483 115.491 89.8385C115.768 89.7296 116.022 89.5715 116.24 89.3721C116.486 89.1404 116.688 88.8681 116.839 88.5676L116.88 88.4868L116.214 88.1416L116.161 88.2187ZM112.902 86.9405C112.99 86.6433 113.155 86.3736 113.381 86.1581C113.687 85.8845 114.089 85.7372 114.504 85.7467C114.762 85.7468 115.018 85.8033 115.252 85.912C115.474 86.0089 115.669 86.1547 115.824 86.3381C115.962 86.5188 116.063 86.7231 116.124 86.9405H112.902Z" fill="#292929"/>
</svg>
