<svg xmlns="http://www.w3.org/2000/svg">

  <symbol id="arrowDown" viewBox="0 0 17 17">
    <path d="M13.1671 6.63452L7.99947 11.4165L2.83187 6.63452C2.73954 6.54891 2.6156 6.50098 2.48653 6.50098C2.35747 6.50098 2.23353 6.54891 2.1412 6.63452C2.0965 6.6761 2.06098 6.72573 2.03673 6.78051C2.01249 6.83528 2 6.8941 2 6.95351C2 7.01293 2.01249 7.07174 2.03673 7.12652C2.06098 7.18129 2.0965 7.23092 2.1412 7.2725L7.63863 12.3607C7.73517 12.45 7.86465 12.5 7.99947 12.5C8.13429 12.5 8.26377 12.45 8.36031 12.3607L13.8577 7.27349C13.9028 7.23187 13.9385 7.18212 13.963 7.12716C13.9874 7.07221 14 7.01316 14 6.95351C14 6.89386 13.9874 6.83481 13.963 6.77986C13.9385 6.7249 13.9028 6.67515 13.8577 6.63354C13.7654 6.54793 13.6415 6.5 13.5124 6.5C13.3833 6.5 13.2594 6.54793 13.1671 6.63354V6.63452Z"/>
  </symbol>

  <symbol id="basket" viewBox="0 0 30 30">
    <path d="M19.648 13.1538V7.61538C19.648 6.39131 19.1584 5.21737 18.2868 4.35181C17.4152 3.48626 16.2331 3 15.0005 3C13.768 3 12.5858 3.48626 11.7143 4.35181C10.8427 5.21737 10.3531 6.39131 10.3531 7.61538V13.1538M24.4269 10.7009L25.9922 25.4702C26.0789 26.2886 25.4345 27 24.6054 27H5.39574C5.20018 27.0002 5.00677 26.9596 4.82806 26.8807C4.64936 26.8018 4.48935 26.6865 4.35845 26.5422C4.22755 26.398 4.12867 26.228 4.06824 26.0433C4.00781 25.8586 3.98718 25.6633 4.00769 25.4702L5.5742 10.7009C5.61034 10.3607 5.77203 10.0458 6.02811 9.81693C6.28419 9.58808 6.61651 9.46148 6.96101 9.46154H23.0401C23.7539 9.46154 24.3525 9.99692 24.4269 10.7009ZM10.8178 13.1538C10.8178 13.2763 10.7688 13.3936 10.6817 13.4802C10.5945 13.5668 10.4763 13.6154 10.3531 13.6154C10.2298 13.6154 10.1116 13.5668 10.0244 13.4802C9.93728 13.3936 9.88831 13.2763 9.88831 13.1538C9.88831 13.0314 9.93728 12.914 10.0244 12.8275C10.1116 12.7409 10.2298 12.6923 10.3531 12.6923C10.4763 12.6923 10.5945 12.7409 10.6817 12.8275C10.7688 12.914 10.8178 13.0314 10.8178 13.1538V13.1538ZM20.1128 13.1538C20.1128 13.2763 20.0638 13.3936 19.9767 13.4802C19.8895 13.5668 19.7713 13.6154 19.648 13.6154C19.5248 13.6154 19.4066 13.5668 19.3194 13.4802C19.2322 13.3936 19.1833 13.2763 19.1833 13.1538C19.1833 13.0314 19.2322 12.914 19.3194 12.8275C19.4066 12.7409 19.5248 12.6923 19.648 12.6923C19.7713 12.6923 19.8895 12.7409 19.9767 12.8275C20.0638 12.914 20.1128 13.0314 20.1128 13.1538V13.1538Z" stroke="#292929" stroke-width="1.25" stroke-linecap="round" stroke-linejoin="round"/>
  </symbol>

  <symbol id="heart" viewBox="0 0 30 30">
    <path d="M14.3951 6.61476L14.9996 7.43835L15.6042 6.6148C16.8775 4.88043 18.9323 3.75 21.2575 3.75C25.1248 3.75 28.25 6.859 28.25 10.68C28.25 12.2005 27.4811 13.9403 26.1998 15.7546C24.9305 17.552 23.2234 19.332 21.4934 20.9154C19.767 22.4957 18.0374 23.8626 16.7378 24.8353C16.0886 25.3212 15.5481 25.7077 15.1708 25.9721C15.1065 26.0171 15.047 26.0586 14.9925 26.0964C14.9394 26.0607 14.8815 26.0217 14.8192 25.9794C14.4424 25.7237 13.9024 25.3493 13.2538 24.8767C11.9553 23.9308 10.2273 22.5961 8.50259 21.038C6.77442 19.4767 5.06944 17.7089 3.8018 15.8986C2.52481 14.0749 1.75 12.2906 1.75 10.6799C1.75 8.2135 2.55328 6.51113 3.76926 5.4176C4.99844 4.3122 6.73763 3.75 8.74176 3.75C11.0676 3.75 13.122 4.88043 14.3951 6.61476Z" stroke="#292929" stroke-width="1.5"/>
  </symbol>

  <symbol id="search" viewBox="0 0 30 30">
    <path d="M27.7838 26.7251L21.707 20.6497C23.3371 18.7761 24.324 16.3315 24.324 13.6596C24.324 7.77827 19.5391 3 13.662 3C7.77933 3 3 7.78381 3 13.6596C3 19.5355 7.78487 24.3193 13.662 24.3193C16.3344 24.3193 18.7796 23.3326 20.6536 21.7029L26.7303 27.7783C26.8745 27.9224 27.0685 28 27.257 28C27.4456 28 27.6396 27.9279 27.7838 27.7783C28.0721 27.49 28.0721 27.0133 27.7838 26.7251ZM4.49146 13.6596C4.49146 8.60421 8.60546 4.49667 13.6565 4.49667C18.713 4.49667 22.8215 8.60976 22.8215 13.6596C22.8215 18.7095 18.713 22.8282 13.6565 22.8282C8.60546 22.8282 4.49146 18.7151 4.49146 13.6596Z"/>
  </symbol>

  <symbol id="user" viewBox="0 0 30 30">
    <path d="M14.8937 14.3648C18.032 14.3648 20.5761 11.8207 20.5761 8.68238C20.5761 5.54409 18.032 3 14.8937 3C11.7554 3 9.21135 5.54409 9.21135 8.68238C9.21135 11.8207 11.7554 14.3648 14.8937 14.3648Z" stroke="#1A1A1A" stroke-width="1.5"/>
    <path d="M24.9819 25.9999C24.6359 25.9999 24.3289 25.7835 24.1924 25.4656C22.5239 21.5777 18.9234 18.9646 14.8928 18.9646C10.8621 18.9646 7.26155 21.5777 5.59308 25.4656C5.45664 25.7835 5.14957 25.9999 4.80361 25.9999C4.24103 25.9999 3.84285 25.4504 4.06043 24.9316C5.9388 20.4528 10.0827 17.3411 14.8928 17.3411C19.7029 17.3411 23.8467 20.4528 25.725 24.9316C25.9427 25.4504 25.5445 25.9999 24.9819 25.9999Z" fill="#1A1A1A"/>
  </symbol>

</svg>
