<svg xmlns="http://www.w3.org/2000/svg">

  <symbol id="arrowDown" viewBox="0 0 17 17">
    <path d="M13.1671 6.63452L7.99947 11.4165L2.83187 6.63452C2.73954 6.54891 2.6156 6.50098 2.48653 6.50098C2.35747 6.50098 2.23353 6.54891 2.1412 6.63452C2.0965 6.6761 2.06098 6.72573 2.03673 6.78051C2.01249 6.83528 2 6.8941 2 6.95351C2 7.01293 2.01249 7.07174 2.03673 7.12652C2.06098 7.18129 2.0965 7.23092 2.1412 7.2725L7.63863 12.3607C7.73517 12.45 7.86465 12.5 7.99947 12.5C8.13429 12.5 8.26377 12.45 8.36031 12.3607L13.8577 7.27349C13.9028 7.23187 13.9385 7.18212 13.963 7.12716C13.9874 7.07221 14 7.01316 14 6.95351C14 6.89386 13.9874 6.83481 13.963 6.77986C13.9385 6.7249 13.9028 6.67515 13.8577 6.63354C13.7654 6.54793 13.6415 6.5 13.5124 6.5C13.3833 6.5 13.2594 6.54793 13.1671 6.63354V6.63452Z"/>
  </symbol>

  <symbol id="basket" viewBox="0 0 30 30">
    <path d="M26.2 25L24.6 10.2C24.5 9.2 23.6 8.4 22.6 8.4H19.8V7.2C19.8 5.8 19.3 4.5 18.3 3.5C17.3 2.5 16 2 14.6 2C13.2 2 11.9 2.5 10.9 3.5C9.9 4.5 9.4 5.8 9.4 7.2V8.4H6.6C6.1 8.4 5.6 8.6 5.2 9C4.8 9.3 4.6 9.7 4.6 10.2L3 25C3 25.3 3 25.6 3.1 25.8C3.2 26.1 3.3 26.3 3.5 26.5C3.7 26.7 3.9 26.9 4.2 27C4.5 27.1 4.7 27.2 5 27.2H24.2C24.8 27.2 25.3 27 25.7 26.5C26.1 26.1 26.3 25.6 26.2 25ZM10.6 7.2C10.6 6.1 11 5.1 11.8 4.4C12.5 3.6 13.5 3.2 14.6 3.2C15.7 3.2 16.7 3.6 17.4 4.4C18.2 5.1 18.6 6.2 18.6 7.2V8.4H10.6V7.2ZM24.8 25.7C24.7 25.9 24.4 26 24.2 26H5C4.9 26 4.8 26 4.7 25.9C4.6 25.9 4.5 25.8 4.4 25.7C4.3 25.6 4.3 25.6 4.3 25.4C4.3 25.3 4.3 25.2 4.3 25.1L5.9 10.3C5.9 10.1 6 9.9 6.1 9.8C6.2 9.7 6.4 9.6 6.6 9.6H9.4V11.8C9.3 11.8 9.3 11.9 9.3 11.9C9.1 12.1 9 12.4 9 12.7C9 13 9.1 13.3 9.3 13.5C9.7 13.9 10.4 13.9 10.8 13.5C11 13.3 11.1 13 11.1 12.7C11.1 12.4 11 12.1 10.8 11.9L10.7 11.8V9.6H18.7V11.8C18.6 11.8 18.6 11.9 18.6 11.9C18.4 12.1 18.3 12.4 18.3 12.7C18.3 13 18.4 13.3 18.6 13.5C19 13.9 19.7 13.9 20.1 13.5C20.3 13.3 20.4 13 20.4 12.7C20.4 12.4 20.3 12.1 20.1 11.9L20 11.8V9.6H22.6C23 9.6 23.3 9.9 23.4 10.3L25 25.1C25 25.4 24.9 25.6 24.8 25.7Z"/>
  </symbol>

  <symbol id="heart" viewBox="0 0 30 30">
    <path d="M14.9999 27L14.3999 26.7C13.8999 26.4 13.3999 26 12.6999 25.5C11.4999 24.6 9.6999 23.2 7.8999 21.6C5.8999 19.8 4.1999 18 3.0999 16.3C1.5999 14.2 0.899902 12.3 0.899902 10.7C0.899902 8.2 1.6999 6.2 3.1999 4.9C4.5999 3.6 6.4999 3 8.6999 3C11.1999 3 13.4999 4.2 14.9999 6.2C16.4999 4.2 18.7999 3 21.2999 3C25.5999 3 28.9999 6.4 28.9999 10.7C28.9999 12.3 28.2999 14.2 26.7999 16.2C25.5999 17.8 23.9999 19.6 21.9999 21.5C20.1999 23.2 18.3999 24.6 17.1999 25.5C16.4999 26 15.9999 26.4 15.5999 26.7L14.9999 27ZM8.6999 4.5C6.8999 4.5 5.2999 5 4.2999 6C3.0999 7 2.4999 8.6 2.4999 10.7C2.4999 12.1 3.0999 13.7 4.3999 15.5C5.4999 17.1 6.9999 18.8 8.9999 20.5C10.7999 22.1 12.4999 23.4 13.6999 24.3C14.1999 24.7 14.5999 25 14.9999 25.2C15.2999 25 15.7999 24.6 16.2999 24.2C17.4999 23.3 19.1999 21.9 20.9999 20.3C22.9999 18.5 24.4999 16.8 25.5999 15.3C26.8999 13.5 27.4999 11.9 27.4999 10.7C27.4999 7.3 24.6999 4.5 21.2999 4.5C19.2999 4.5 17.3999 5.5 16.2999 7.1L14.9999 8.7L13.7999 7.1C12.5999 5.5 10.6999 4.5 8.6999 4.5Z"/>
  </symbol>

  <symbol id="instagram" viewBox="0 0 25 25">
    <path d="M7.25 0H17.75C21.75 0 25 3.25 25 7.25V17.75C25 19.6728 24.2362 21.5169 22.8765 22.8765C21.5169 24.2362 19.6728 25 17.75 25H7.25C3.25 25 0 21.75 0 17.75V7.25C0 5.32718 0.763837 3.48311 2.12348 2.12348C3.48311 0.763837 5.32718 0 7.25 0M7 2.5C5.80653 2.5 4.66193 2.97411 3.81802 3.81802C2.97411 4.66193 2.5 5.80653 2.5 7V18C2.5 20.4875 4.5125 22.5 7 22.5H18C19.1935 22.5 20.3381 22.0259 21.182 21.182C22.0259 20.3381 22.5 19.1935 22.5 18V7C22.5 4.5125 20.4875 2.5 18 2.5H7ZM19.0625 4.375C19.4769 4.375 19.8743 4.53962 20.1674 4.83265C20.4604 5.12567 20.625 5.5231 20.625 5.9375C20.625 6.3519 20.4604 6.74933 20.1674 7.04235C19.8743 7.33538 19.4769 7.5 19.0625 7.5C18.6481 7.5 18.2507 7.33538 17.9576 7.04235C17.6646 6.74933 17.5 6.3519 17.5 5.9375C17.5 5.5231 17.6646 5.12567 17.9576 4.83265C18.2507 4.53962 18.6481 4.375 19.0625 4.375ZM12.5 6.25C14.1576 6.25 15.7473 6.90848 16.9194 8.08058C18.0915 9.25269 18.75 10.8424 18.75 12.5C18.75 14.1576 18.0915 15.7473 16.9194 16.9194C15.7473 18.0915 14.1576 18.75 12.5 18.75C10.8424 18.75 9.25269 18.0915 8.08058 16.9194C6.90848 15.7473 6.25 14.1576 6.25 12.5C6.25 10.8424 6.90848 9.25269 8.08058 8.08058C9.25269 6.90848 10.8424 6.25 12.5 6.25M12.5 8.75C11.5054 8.75 10.5516 9.14509 9.84835 9.84835C9.14509 10.5516 8.75 11.5054 8.75 12.5C8.75 13.4946 9.14509 14.4484 9.84835 15.1517C10.5516 15.8549 11.5054 16.25 12.5 16.25C13.4946 16.25 14.4484 15.8549 15.1517 15.1517C15.8549 14.4484 16.25 13.4946 16.25 12.5C16.25 11.5054 15.8549 10.5516 15.1517 9.84835C14.4484 9.14509 13.4946 8.75 12.5 8.75Z"/>
  </symbol>

  <symbol id="search" viewBox="0 0 30 30">
    <path d="M27.7838 26.7251L21.707 20.6497C23.3371 18.7761 24.324 16.3315 24.324 13.6596C24.324 7.77827 19.5391 3 13.662 3C7.77933 3 3 7.78381 3 13.6596C3 19.5355 7.78487 24.3193 13.662 24.3193C16.3344 24.3193 18.7796 23.3326 20.6536 21.7029L26.7303 27.7783C26.8745 27.9224 27.0685 28 27.257 28C27.4456 28 27.6396 27.9279 27.7838 27.7783C28.0721 27.49 28.0721 27.0133 27.7838 26.7251ZM4.49146 13.6596C4.49146 8.60421 8.60546 4.49667 13.6565 4.49667C18.713 4.49667 22.8215 8.60976 22.8215 13.6596C22.8215 18.7095 18.713 22.8282 13.6565 22.8282C8.60546 22.8282 4.49146 18.7151 4.49146 13.6596Z"/>
  </symbol>

  <symbol id="user" viewBox="0 0 30 30">
    <path d="M12.4 15.8002C15.9 15.8002 18.8 12.9002 18.8 9.40019C18.8 5.90019 15.9 3.00019 12.4 3.00019C8.9 3.00019 6 5.90019 6 9.40019C6 12.9002 8.8 15.8002 12.4 15.8002ZM12.4 4.50019C15.1 4.50019 17.3 6.70019 17.3 9.40019C17.3 12.1002 15.1 14.3002 12.4 14.3002C9.7 14.3002 7.5 12.1002 7.5 9.40019C7.5 6.70019 9.7 4.50019 12.4 4.50019Z"/>
    <path d="M23.702 25.6002C21.802 21.1002 17.702 18.0002 12.902 18.0002C8.10202 18.0002 3.90202 21.1002 2.10202 25.6002C1.80202 26.2002 2.20202 26.7002 2.80202 26.7002C3.10202 26.7002 3.50202 26.5002 3.60202 26.2002C5.30202 22.3002 8.90202 19.7002 12.902 19.7002C16.902 19.7002 20.502 22.3002 22.202 26.2002C22.302 26.5002 22.602 26.7002 23.002 26.7002C23.502 26.7002 23.902 26.2002 23.702 25.6002Z"/>
  </symbol>

</svg>
