<svg xmlns="http://www.w3.org/2000/svg">

  <symbol id="arrowDown" viewBox="0 0 17 17">
    <path d="M13.1671 6.63452L7.99947 11.4165L2.83187 6.63452C2.73954 6.54891 2.6156 6.50098 2.48653 6.50098C2.35747 6.50098 2.23353 6.54891 2.1412 6.63452C2.0965 6.6761 2.06098 6.72573 2.03673 6.78051C2.01249 6.83528 2 6.8941 2 6.95351C2 7.01293 2.01249 7.07174 2.03673 7.12652C2.06098 7.18129 2.0965 7.23092 2.1412 7.2725L7.63863 12.3607C7.73517 12.45 7.86465 12.5 7.99947 12.5C8.13429 12.5 8.26377 12.45 8.36031 12.3607L13.8577 7.27349C13.9028 7.23187 13.9385 7.18212 13.963 7.12716C13.9874 7.07221 14 7.01316 14 6.95351C14 6.89386 13.9874 6.83481 13.963 6.77986C13.9385 6.7249 13.9028 6.67515 13.8577 6.63354C13.7654 6.54793 13.6415 6.5 13.5124 6.5C13.3833 6.5 13.2594 6.54793 13.1671 6.63354V6.63452Z"/>
  </symbol>

  <symbol id="arrowRight" viewBox="0 0 13 22">
    <path fill-rule="evenodd" clip-rule="evenodd" d="M0.292893 0.292893C0.683417 -0.0976311 1.31658 -0.0976311 1.70711 0.292893L12.4142 11L1.70711 21.7071C1.31658 22.0976 0.683417 22.0976 0.292893 21.7071C-0.0976311 21.3166 -0.0976311 20.6834 0.292893 20.2929L9.58579 11L0.292893 1.70711C-0.0976311 1.31658 -0.0976311 0.683417 0.292893 0.292893Z"/>
  </symbol>

  <symbol id="basket" viewBox="0 0 30 30">
    <path d="M26.2 25L24.6 10.2C24.5 9.2 23.6 8.4 22.6 8.4H19.8V7.2C19.8 5.8 19.3 4.5 18.3 3.5C17.3 2.5 16 2 14.6 2C13.2 2 11.9 2.5 10.9 3.5C9.9 4.5 9.4 5.8 9.4 7.2V8.4H6.6C6.1 8.4 5.6 8.6 5.2 9C4.8 9.3 4.6 9.7 4.6 10.2L3 25C3 25.3 3 25.6 3.1 25.8C3.2 26.1 3.3 26.3 3.5 26.5C3.7 26.7 3.9 26.9 4.2 27C4.5 27.1 4.7 27.2 5 27.2H24.2C24.8 27.2 25.3 27 25.7 26.5C26.1 26.1 26.3 25.6 26.2 25ZM10.6 7.2C10.6 6.1 11 5.1 11.8 4.4C12.5 3.6 13.5 3.2 14.6 3.2C15.7 3.2 16.7 3.6 17.4 4.4C18.2 5.1 18.6 6.2 18.6 7.2V8.4H10.6V7.2ZM24.8 25.7C24.7 25.9 24.4 26 24.2 26H5C4.9 26 4.8 26 4.7 25.9C4.6 25.9 4.5 25.8 4.4 25.7C4.3 25.6 4.3 25.6 4.3 25.4C4.3 25.3 4.3 25.2 4.3 25.1L5.9 10.3C5.9 10.1 6 9.9 6.1 9.8C6.2 9.7 6.4 9.6 6.6 9.6H9.4V11.8C9.3 11.8 9.3 11.9 9.3 11.9C9.1 12.1 9 12.4 9 12.7C9 13 9.1 13.3 9.3 13.5C9.7 13.9 10.4 13.9 10.8 13.5C11 13.3 11.1 13 11.1 12.7C11.1 12.4 11 12.1 10.8 11.9L10.7 11.8V9.6H18.7V11.8C18.6 11.8 18.6 11.9 18.6 11.9C18.4 12.1 18.3 12.4 18.3 12.7C18.3 13 18.4 13.3 18.6 13.5C19 13.9 19.7 13.9 20.1 13.5C20.3 13.3 20.4 13 20.4 12.7C20.4 12.4 20.3 12.1 20.1 11.9L20 11.8V9.6H22.6C23 9.6 23.3 9.9 23.4 10.3L25 25.1C25 25.4 24.9 25.6 24.8 25.7Z"/>
  </symbol>

  <symbol id="burger" viewBox="0 0 30 30">
    <path d="M4,5.5H26A1.5,1.5,0,0,1,27.5,7h0A1.5,1.5,0,0,1,26,8.5H4A1.5,1.5,0,0,1,2.5,7h0A1.5,1.5,0,0,1,4,5.5Z"></path>
    <path d="M4,13.5H26A1.5,1.5,0,0,1,27.5,15h0A1.5,1.5,0,0,1,26,16.5H4A1.5,1.5,0,0,1,2.5,15h0A1.5,1.5,0,0,1,4,13.5Z"></path>
    <path d="M4,21.5H26A1.5,1.5,0,0,1,27.5,23h0A1.5,1.5,0,0,1,26,24.5H4A1.5,1.5,0,0,1,2.5,23h0A1.5,1.5,0,0,1,4,21.5Z"></path>
  </symbol>

  <symbol id="catalog" viewBox="0 0 30 30">
    <path d="M26.9531 11.2266V11.2031C26.9531 11.1797 26.9531 11.168 26.9414 11.1562V11.1211C26.9414 11.1094 26.9297 11.0859 26.9297 11.0742L25.2422 5.17969C25.1456 4.83705 24.9401 4.53515 24.6569 4.31952C24.3736 4.1039 24.0279 3.98627 23.6719 3.98438H6.32812C5.97213 3.98627 5.62642 4.1039 5.34315 4.31952C5.05988 4.53515 4.85443 4.83705 4.75781 5.17969L3.07031 11.0625C3.07031 11.0742 3.05859 11.0977 3.05859 11.1094V11.1445C3.04687 11.1562 3.04687 11.168 3.04687 11.1914V13.125C3.0456 13.8364 3.21525 14.5378 3.54155 15.17C3.86784 15.8022 4.34123 16.3467 4.92187 16.7578V24.375C4.92187 24.8101 5.09473 25.2274 5.4024 25.5351C5.71008 25.8428 6.12738 26.0156 6.5625 26.0156H23.4375C23.8726 26.0156 24.2899 25.8428 24.5976 25.5351C24.9053 25.2274 25.0781 24.8101 25.0781 24.375V16.7578C25.6588 16.3467 26.1322 15.8022 26.4585 15.17C26.7847 14.5378 26.9544 13.8364 26.9531 13.125V11.2266ZM6.10547 5.56641C6.11827 5.5168 6.14697 5.47275 6.18718 5.441C6.22739 5.40926 6.2769 5.39156 6.32812 5.39062H23.6719C23.7231 5.39156 23.7726 5.40926 23.8128 5.441C23.853 5.47275 23.8817 5.5168 23.8945 5.56641L25.3125 10.5469H4.6875L6.10547 5.56641ZM11.9531 11.9531H18.0469V13.125C18.0469 13.9331 17.7259 14.7081 17.1545 15.2795C16.5831 15.8509 15.8081 16.1719 15 16.1719C14.1919 16.1719 13.4169 15.8509 12.8455 15.2795C12.2741 14.7081 11.9531 13.9331 11.9531 13.125V11.9531ZM4.45312 11.9531H10.5469V13.125C10.5438 13.9321 10.2218 14.7053 9.65106 15.2761C9.08032 15.8468 8.30713 16.1688 7.5 16.1719C7.00215 16.171 6.5118 16.0504 6.07031 15.8203C6.01517 15.7705 5.95171 15.7309 5.88281 15.7031C5.44584 15.4295 5.08545 15.0494 4.83541 14.5985C4.58536 14.1476 4.45383 13.6406 4.45312 13.125V11.9531ZM23.6719 24.375C23.6719 24.4372 23.6472 24.4968 23.6032 24.5407C23.5593 24.5847 23.4997 24.6094 23.4375 24.6094H6.5625C6.50034 24.6094 6.44073 24.5847 6.39677 24.5407C6.35282 24.4968 6.32812 24.4372 6.32812 24.375V17.4258C6.71097 17.5247 7.10459 17.5759 7.5 17.5781C8.24669 17.5771 8.98121 17.3889 9.63634 17.0306C10.2915 16.6723 10.8463 16.1555 11.25 15.5273C11.6528 16.1564 12.2075 16.6739 12.8628 17.0324C13.5181 17.3909 14.253 17.5788 15 17.5788C15.747 17.5788 16.4819 17.3909 17.1372 17.0324C17.7926 16.6739 18.3472 16.1564 18.75 15.5273C19.1537 16.1555 19.7085 16.6723 20.3637 17.0306C21.0188 17.3889 21.7533 17.5771 22.5 17.5781C22.8954 17.5759 23.289 17.5247 23.6719 17.4258V24.375ZM24.1172 15.7031C24.0483 15.7309 23.9848 15.7705 23.9297 15.8203C23.4882 16.0504 22.9979 16.171 22.5 16.1719C21.6929 16.1688 20.9197 15.8468 20.3489 15.2761C19.7782 14.7053 19.4562 13.9321 19.4531 13.125V11.9531H25.5469V13.125C25.5462 13.6406 25.4146 14.1476 25.1646 14.5985C24.9145 15.0494 24.5542 15.4295 24.1172 15.7031Z"/>
  </symbol>

  <symbol id="close" viewBox="0 0 13 13">
    <path d="M6.5 7.88403L1.65589 12.7281C1.47465 12.9094 1.24398 13 0.963878 13C0.683777 13 0.453105 12.9094 0.271863 12.7281C0.0906207 12.5469 0 12.3162 0 12.0361C0 11.756 0.0906207 11.5253 0.271863 11.3441L5.11597 6.5L0.271863 1.65589C0.0906207 1.47465 0 1.24398 0 0.963878C0 0.683777 0.0906207 0.453105 0.271863 0.271863C0.453105 0.0906207 0.683777 0 0.963878 0C1.24398 0 1.47465 0.0906207 1.65589 0.271863L6.5 5.11597L11.3441 0.271863C11.5253 0.0906207 11.756 0 12.0361 0C12.3162 0 12.5469 0.0906207 12.7281 0.271863C12.9094 0.453105 13 0.683777 13 0.963878C13 1.24398 12.9094 1.47465 12.7281 1.65589L7.88403 6.5L12.7281 11.3441C12.9094 11.5253 13 11.756 13 12.0361C13 12.3162 12.9094 12.5469 12.7281 12.7281C12.5469 12.9094 12.3162 13 12.0361 13C11.756 13 11.5253 12.9094 11.3441 12.7281L6.5 7.88403Z"/>
  </symbol>

  <symbol id="edit" viewBox="0 0 40 40">
    <path d="M12.8663 27.4266L15.8013 26.5799L33.473 8.69657C33.6124 8.55373 33.69 8.3618 33.6891 8.16222C33.6881 7.96264 33.6087 7.77143 33.468 7.62991L32.4097 6.55991C32.3413 6.48963 32.2596 6.43369 32.1693 6.39534C32.0791 6.35698 31.9821 6.33699 31.8841 6.33652C31.786 6.33606 31.6888 6.35513 31.5982 6.39262C31.5076 6.43012 31.4254 6.48529 31.3563 6.55491L13.7313 24.3916L12.8647 27.4249L12.8663 27.4266ZM34.5047 4.43991L35.563 5.51157C37.023 6.98991 37.0363 9.37491 35.5897 10.8382L17.3797 29.2682L11.1063 31.0749C10.7233 31.1821 10.3134 31.133 9.96661 30.9383C9.61978 30.7437 9.36434 30.4194 9.25634 30.0366C9.17598 29.7614 9.17482 29.4691 9.25301 29.1932L11.078 22.7932L29.2397 4.41157C29.585 4.06384 29.9961 3.78834 30.4491 3.60116C30.902 3.41398 31.3877 3.31885 31.8778 3.32134C32.3678 3.32382 32.8525 3.42386 33.3035 3.61562C33.7546 3.80738 34.1629 4.08869 34.5047 4.43991ZM15.3063 6.36157C16.133 6.36157 16.803 7.03991 16.803 7.87657C16.8043 8.07435 16.7666 8.27045 16.6921 8.45366C16.6176 8.63687 16.5077 8.80359 16.3687 8.94429C16.2297 9.085 16.0643 9.19692 15.882 9.27367C15.6997 9.35042 15.5041 9.39048 15.3063 9.39157H9.31967C7.66634 9.39157 6.32634 10.7482 6.32634 12.4199V30.5966C6.32634 32.2699 7.66634 33.6266 9.31967 33.6266H27.2797C28.933 33.6266 30.2747 32.2699 30.2747 30.5966V24.5382C30.2747 23.7016 30.9447 23.0232 31.7713 23.0232C32.598 23.0232 33.268 23.7016 33.268 24.5399V30.5966C33.268 33.9432 30.5863 36.6566 27.2797 36.6566H9.31967C6.01301 36.6566 3.33301 33.9432 3.33301 30.5966V12.4199C3.33301 9.07491 6.01301 6.36157 9.31967 6.36157H15.3063Z"/>
  </symbol>

  <symbol id="edit2" viewBox="0 0 30 30">
    <path d="M22.3 12.175L18.05 7.975L19.45 6.575C19.8333 6.19167 20.3043 6 20.863 6C21.421 6 21.8917 6.19167 22.275 6.575L23.675 7.975C24.0583 8.35833 24.2583 8.821 24.275 9.363C24.2917 9.90433 24.1083 10.3667 23.725 10.75L22.3 12.175ZM20.85 13.65L10.25 24.25H6V20L16.6 9.4L20.85 13.65Z"/>
  </symbol>

  <symbol id="email" viewBox="0 0 30 30">
    <path fill-rule="evenodd" clip-rule="evenodd" d="M0.814443 6.76171C1.1682 6.42928 1.63857 6.25 2.12 6.25H27.88C28.3614 6.25 28.8318 6.42928 29.1856 6.76171C29.5409 7.09563 29.75 7.55885 29.75 8.05247V23.9475C29.75 24.4412 29.5409 24.9044 29.1856 25.2383C28.8318 25.5707 28.3614 25.75 27.88 25.75H2.12C1.88068 25.75 1.64273 25.7058 1.41935 25.6188C1.19592 25.5318 0.989997 25.4033 0.814443 25.2383C0.459101 24.9044 0.25 24.4412 0.25 23.9475V8.05247C0.25 7.55885 0.459102 7.09563 0.814443 6.76171ZM2.12 7.75C2.00734 7.75 1.90796 7.79249 1.84164 7.85481C1.7769 7.91565 1.75 7.98783 1.75 8.05247V23.9475C1.75 24.0122 1.7769 24.0844 1.84164 24.1452C1.87409 24.1757 1.9151 24.2021 1.96344 24.221C2.01183 24.2398 2.06516 24.25 2.12 24.25H27.88C27.9927 24.25 28.092 24.2075 28.1584 24.1452C28.2231 24.0844 28.25 24.0122 28.25 23.9475V8.05247C28.25 7.98783 28.2231 7.91565 28.1584 7.85481C28.092 7.79249 27.9927 7.75 27.88 7.75H2.12Z"/>
    <path fill-rule="evenodd" clip-rule="evenodd" d="M25.5447 9.48447C25.8295 9.78532 25.8164 10.26 25.5155 10.5447L19.1148 16.6023L25.3113 21.4073C25.6386 21.6611 25.6982 22.1323 25.4443 22.4596C25.1905 22.7869 24.7194 22.8465 24.3921 22.5927L18.0124 17.6456L17.9252 17.7281C17.9251 17.7282 17.9252 17.7281 17.9252 17.7281C17.5357 18.0978 17.075 18.3891 16.5709 18.5871C16.0667 18.7852 15.5275 18.8866 14.9839 18.8866C14.4402 18.8866 13.9011 18.7852 13.3969 18.5871C12.8928 18.3891 12.4324 18.098 12.0429 17.7284C12.0428 17.7283 12.043 17.7285 12.0429 17.7284L11.9844 17.6731L5.64018 22.5927C5.31286 22.8465 4.84174 22.7869 4.58791 22.4596C4.33408 22.1323 4.39366 21.6611 4.72099 21.4073L10.882 16.6298L4.48447 10.5753C4.18363 10.2905 4.17055 9.81584 4.45527 9.51499C4.73999 9.21415 5.21468 9.20107 5.51553 9.48579L12.4885 16.085C12.5317 16.1176 12.5719 16.1554 12.6081 16.1982L13.0751 16.6401C13.3219 16.8743 13.6172 17.0621 13.9453 17.191C14.2734 17.3198 14.6264 17.3866 14.9839 17.3866C15.3413 17.3866 15.6944 17.3198 16.0225 17.191C16.3505 17.0621 16.6459 16.8743 16.8926 16.6401L24.4845 9.45527C24.7853 9.17055 25.26 9.18363 25.5447 9.48447Z"/>
  </symbol>

  <symbol id="exit" viewBox="0 0 25 25">
    <path fill-rule="evenodd" clip-rule="evenodd" d="M2.06363 4.05293C2.5835 3.538 3.28709 3.25 4.01923 3.25H13.7115C14.4437 3.25 15.1473 3.538 15.6671 4.05293C16.1873 4.56809 16.4808 5.26833 16.4808 6V8C16.4808 8.41421 16.145 8.75 15.7308 8.75C15.3166 8.75 14.9808 8.41421 14.9808 8V6C14.9808 5.67081 14.8488 5.35363 14.6116 5.11865C14.3741 4.88342 14.0505 4.75 13.7115 4.75H4.01923C3.68031 4.75 3.35669 4.88342 3.11921 5.11865C2.88196 5.35363 2.75 5.67081 2.75 6V18C2.75 18.3292 2.88196 18.6464 3.11921 18.8814C3.35669 19.1166 3.68031 19.25 4.01923 19.25H13.7115C14.0505 19.25 14.3741 19.1166 14.6116 18.8814C14.8488 18.6464 14.9808 18.3292 14.9808 18V16C14.9808 15.5858 15.3166 15.25 15.7308 15.25C16.145 15.25 16.4808 15.5858 16.4808 16V18C16.4808 18.7317 16.1873 19.4319 15.6671 19.9471C15.1473 20.462 14.4437 20.75 13.7115 20.75H4.01923C3.28709 20.75 2.5835 20.462 2.06363 19.9471C1.54352 19.4319 1.25 18.7317 1.25 18V6C1.25 5.26833 1.54352 4.56809 2.06363 4.05293ZM18.4287 7.47221C18.7202 7.17792 19.195 7.17565 19.4893 7.46714L23.5278 11.4671C23.67 11.608 23.75 11.7998 23.75 12C23.75 12.2002 23.67 12.392 23.5278 12.5329L19.4893 16.5329C19.195 16.8244 18.7202 16.8221 18.4287 16.5278C18.1372 16.2335 18.1395 15.7586 18.4338 15.4671L21.177 12.75H9.21875C8.80454 12.75 8.46875 12.4142 8.46875 12C8.46875 11.5858 8.80454 11.25 9.21875 11.25H21.177L18.4338 8.53286C18.1395 8.24137 18.1372 7.76651 18.4287 7.47221Z"/>
  </symbol>

  <symbol id="eye" viewBox="0 0 20 20">
    <path d="M18.9596 9.81538C18.9291 9.75385 18.2962 8.33077 16.8779 6.90769C15.4596 5.48462 13.3093 4 10 4C6.69067 4 4.43361 5.57692 3.12208 6.90769C1.81055 8.23846 1.07091 9.75385 1.04041 9.81538C1.01379 9.87323 1 9.93623 1 10C1 10.0638 1.01379 10.1268 1.04041 10.1846C1.07091 10.2462 1.7038 11.6692 3.12208 13.0923C4.54037 14.5154 6.69067 16 10 16C13.3093 16 15.5664 14.4231 16.8779 13.0923C18.1895 11.7615 18.9291 10.2462 18.9596 10.1846C18.9862 10.1268 19 10.0638 19 10C19 9.93623 18.9862 9.87323 18.9596 9.81538ZM10 15.0769C7.60569 15.0769 5.51639 14.2 3.7931 12.4692C3.06644 11.7429 2.45211 10.9105 1.97068 10C2.45211 9.08947 3.06644 8.2571 3.7931 7.53077C5.51639 5.8 7.60569 4.92308 10 4.92308C12.3943 4.92308 14.4836 5.8 16.2069 7.53077C16.9336 8.2571 17.5479 9.08947 18.0293 10C17.5413 10.9385 15.1089 15.0769 10 15.0769ZM10 6.46154C9.30626 6.46154 8.62811 6.66907 8.05129 7.05788C7.47447 7.44669 7.02489 7.99932 6.75941 8.64589C6.49393 9.29246 6.42447 10.0039 6.55981 10.6903C6.69515 11.3767 7.02922 12.0072 7.51976 12.5021C8.01031 12.9969 8.6353 13.3339 9.3157 13.4705C9.99611 13.607 10.7014 13.5369 11.3423 13.2691C11.9832 13.0013 12.531 12.5478 12.9165 11.9659C13.3019 11.384 13.5076 10.6998 13.5076 10C13.5076 9.06154 13.138 8.16152 12.4802 7.49793C11.8224 6.83434 10.9303 6.46154 10 6.46154ZM10 12.6154C9.48724 12.6154 8.98599 12.462 8.55965 12.1746C8.1333 11.8872 7.80101 11.4788 7.60478 11.0009C7.40856 10.523 7.35722 9.9971 7.45725 9.48976C7.55729 8.98243 7.8042 8.51641 8.16678 8.15064C8.52936 7.78488 8.99131 7.53578 9.49422 7.43487C9.99712 7.33395 10.5184 7.38575 10.9921 7.5837C11.4659 7.78165 11.8708 8.11687 12.1556 8.54697C12.4405 8.97707 12.5926 9.48273 12.5926 10C12.5906 10.693 12.3168 11.3571 11.831 11.8471C11.3452 12.3372 10.687 12.6134 10 12.6154Z"/>
  </symbol>

  <symbol id="filter" viewBox="0 0 30 30">
    <path fill-rule="evenodd" clip-rule="evenodd" d="M9.28557 6.21436C9.0393 6.21436 8.80312 6.31219 8.62898 6.48633C8.45483 6.66047 8.357 6.89665 8.357 7.14293V10.0001C8.357 10.2463 8.45483 10.4825 8.62898 10.6567C8.80312 10.8308 9.0393 10.9286 9.28557 10.9286C9.53185 10.9286 9.76803 10.8308 9.94217 10.6567C10.1163 10.4825 10.2141 10.2463 10.2141 10.0001V7.14293C10.2141 6.89665 10.1163 6.66047 9.94217 6.48633C9.76803 6.31219 9.53185 6.21436 9.28557 6.21436ZM11.2141 8.0715V7.14293C11.2141 6.63144 11.011 6.1409 10.6493 5.77922C10.2876 5.41754 9.79706 5.21436 9.28557 5.21436C8.77409 5.21436 8.28355 5.41754 7.92187 5.77922C7.56019 6.1409 7.357 6.63144 7.357 7.14293V8.0715H3.57129C3.29515 8.0715 3.07129 8.29536 3.07129 8.5715C3.07129 8.84764 3.29515 9.0715 3.57129 9.0715H7.357V10.0001C7.357 10.5116 7.56019 11.0021 7.92187 11.3638C8.28355 11.7255 8.77409 11.9286 9.28557 11.9286C9.79706 11.9286 10.2876 11.7255 10.6493 11.3638C11.011 11.0021 11.2141 10.5116 11.2141 10.0001V9.0715H26.4284C26.7046 9.0715 26.9284 8.84764 26.9284 8.5715C26.9284 8.29536 26.7046 8.0715 26.4284 8.0715H11.2141ZM20.7141 13.3572C20.4679 13.3572 20.2317 13.455 20.0575 13.6292C19.8834 13.8033 19.7856 14.0395 19.7856 14.2858V17.1429C19.7856 17.3892 19.8834 17.6254 20.0575 17.7995C20.2317 17.9737 20.4679 18.0715 20.7141 18.0715C20.9604 18.0715 21.1966 17.9737 21.3707 17.7995C21.5449 17.6254 21.6427 17.3892 21.6427 17.1429V14.2858C21.6427 14.0395 21.5449 13.8033 21.3707 13.6292C21.1966 13.455 20.9604 13.3572 20.7141 13.3572ZM22.6427 15.2144V14.2858C22.6427 13.7743 22.4395 13.2838 22.0779 12.9221C21.7162 12.5604 21.2256 12.3572 20.7141 12.3572C20.2027 12.3572 19.7121 12.5604 19.3504 12.9221C18.9888 13.2838 18.7856 13.7743 18.7856 14.2858V15.2144H3.57129C3.29515 15.2144 3.07129 15.4382 3.07129 15.7144C3.07129 15.9905 3.29515 16.2144 3.57129 16.2144H18.7856V17.1429C18.7856 17.6544 18.9888 18.145 19.3504 18.5066C19.7121 18.8683 20.2027 19.0715 20.7141 19.0715C21.2256 19.0715 21.7162 18.8683 22.0779 18.5066C22.4395 18.145 22.6427 17.6544 22.6427 17.1429V16.2144H26.4284C26.7046 16.2144 26.9284 15.9905 26.9284 15.7144C26.9284 15.4382 26.7046 15.2144 26.4284 15.2144H22.6427ZM9.28557 20.5001C9.0393 20.5001 8.80312 20.5979 8.62898 20.772C8.45483 20.9462 8.357 21.1824 8.357 21.4286V24.2858C8.357 24.5321 8.45484 24.7682 8.62898 24.9424C8.80312 25.1165 9.0393 25.2144 9.28557 25.2144C9.53185 25.2144 9.76803 25.1165 9.94217 24.9424C10.1163 24.7682 10.2141 24.5321 10.2141 24.2858V21.4286C10.2141 21.1824 10.1163 20.9462 9.94217 20.772C9.76803 20.5979 9.53185 20.5001 9.28557 20.5001ZM11.2141 22.3572V21.4286C11.2141 20.9172 11.011 20.4266 10.6493 20.0649C10.2876 19.7033 9.79706 19.5001 9.28557 19.5001C8.77409 19.5001 8.28355 19.7033 7.92187 20.0649C7.56019 20.4266 7.357 20.9172 7.357 21.4286V22.3572H3.57129C3.29515 22.3572 3.07129 22.5811 3.07129 22.8572C3.07129 23.1334 3.29515 23.3572 3.57129 23.3572H7.357V24.2858C7.357 24.7973 7.56019 25.2878 7.92187 25.6495C8.28355 26.0112 8.77409 26.2144 9.28557 26.2144C9.79706 26.2144 10.2876 26.0112 10.6493 25.6495C11.011 25.2878 11.2141 24.7973 11.2141 24.2858V23.3572H26.4284C26.7046 23.3572 26.9284 23.1334 26.9284 22.8572C26.9284 22.5811 26.7046 22.3572 26.4284 22.3572H11.2141Z"/>
  </symbol>

  <symbol id="four" viewBox="0 0 208 303">
    <path fill-rule="evenodd" clip-rule="evenodd" d="M201.923 177.1H201.992C204.109 177.1 205.492 178.387 206.198 179.445C206.851 180.423 207.193 181.546 207.403 182.49C207.836 184.435 208.001 187.049 208.001 190.131C208.001 193.379 207.646 196.619 206.941 199.847C206.764 201.205 206.514 202.511 206.114 203.577C205.909 204.123 205.567 204.878 204.97 205.56C204.327 206.293 203.157 207.175 201.49 207.175H201.352L201.215 207.166C192.378 206.557 180.583 205.946 165.82 205.334V277.427C165.82 279.72 165.407 281.972 164.288 283.928C163.168 285.886 161.489 287.284 159.439 288.106L132.736 301.697L129.451 302.791L129.44 302.795L128.824 303H128.176C126.942 303 125.778 302.555 124.86 301.74C124.025 300.998 123.565 300.106 123.301 299.402C122.792 298.047 122.669 296.461 122.669 294.986V204.106C101.096 203.811 63.1022 203.663 8.66346 203.663C5.73205 203.663 3.20758 202.403 1.44728 200.058C0.480286 198.77 -0.192302 197.086 0.0494937 195.153C0.267073 193.414 1.15778 192.033 2.13762 191.001L151.295 2.33909L151.46 2.1737C153.145 0.490839 155.346 0 157.3 0C159.071 0 160.693 0.546883 162.123 1.41475C163.023 1.79807 163.932 2.40797 164.642 3.35456C165.511 4.51153 165.82 5.82025 165.82 7.01021V178.078C173.567 177.988 185.567 177.664 201.854 177.103L201.923 177.1ZM165.82 182.078C164.332 182.095 162.999 182.104 161.82 182.104V7.01021C161.82 6.00681 161.318 5.33788 160.313 5.0034C159.309 4.33447 158.305 4 157.3 4C155.961 4 154.957 4.33447 154.288 5.0034L5.14839 193.643C3.80932 194.981 3.64194 196.319 4.64624 197.656C5.65054 198.994 6.98962 199.663 8.66346 199.663C66.5783 199.663 105.914 199.831 126.669 200.165V294.986C126.669 297.662 127.171 299 128.176 299L131.189 297.997L157.803 284.451C160.481 283.447 161.82 281.106 161.82 277.427V201.168C163.176 201.223 164.51 201.277 165.82 201.331C180.678 201.946 192.568 202.56 201.49 203.175C202.159 203.175 202.662 201.837 202.996 199.162C203.666 196.151 204.001 193.141 204.001 190.131C204.001 184.111 203.331 181.1 201.992 181.1C185.684 181.662 173.626 181.988 165.82 182.078ZM37.7911 180.109C63.0739 180.086 91.3661 179.778 122.669 179.184V74.558L37.7911 180.109ZM32.2646 180.599C31.2603 181.602 30.9255 182.438 31.2603 183.107C31.9298 183.776 33.1015 184.111 34.7754 184.111C61.8916 184.111 92.5229 183.776 126.669 183.107V63.2007L32.2646 180.599Z"/>
  </symbol>

  <symbol id="heart" viewBox="0 0 30 30">
    <path d="M14.9999 27L14.3999 26.7C13.8999 26.4 13.3999 26 12.6999 25.5C11.4999 24.6 9.6999 23.2 7.8999 21.6C5.8999 19.8 4.1999 18 3.0999 16.3C1.5999 14.2 0.899902 12.3 0.899902 10.7C0.899902 8.2 1.6999 6.2 3.1999 4.9C4.5999 3.6 6.4999 3 8.6999 3C11.1999 3 13.4999 4.2 14.9999 6.2C16.4999 4.2 18.7999 3 21.2999 3C25.5999 3 28.9999 6.4 28.9999 10.7C28.9999 12.3 28.2999 14.2 26.7999 16.2C25.5999 17.8 23.9999 19.6 21.9999 21.5C20.1999 23.2 18.3999 24.6 17.1999 25.5C16.4999 26 15.9999 26.4 15.5999 26.7L14.9999 27ZM8.6999 4.5C6.8999 4.5 5.2999 5 4.2999 6C3.0999 7 2.4999 8.6 2.4999 10.7C2.4999 12.1 3.0999 13.7 4.3999 15.5C5.4999 17.1 6.9999 18.8 8.9999 20.5C10.7999 22.1 12.4999 23.4 13.6999 24.3C14.1999 24.7 14.5999 25 14.9999 25.2C15.2999 25 15.7999 24.6 16.2999 24.2C17.4999 23.3 19.1999 21.9 20.9999 20.3C22.9999 18.5 24.4999 16.8 25.5999 15.3C26.8999 13.5 27.4999 11.9 27.4999 10.7C27.4999 7.3 24.6999 4.5 21.2999 4.5C19.2999 4.5 17.3999 5.5 16.2999 7.1L14.9999 8.7L13.7999 7.1C12.5999 5.5 10.6999 4.5 8.6999 4.5Z"/>
  </symbol>

  <symbol id="instagram" viewBox="0 0 25 25">
    <path d="M7.25 0H17.75C21.75 0 25 3.25 25 7.25V17.75C25 19.6728 24.2362 21.5169 22.8765 22.8765C21.5169 24.2362 19.6728 25 17.75 25H7.25C3.25 25 0 21.75 0 17.75V7.25C0 5.32718 0.763837 3.48311 2.12348 2.12348C3.48311 0.763837 5.32718 0 7.25 0M7 2.5C5.80653 2.5 4.66193 2.97411 3.81802 3.81802C2.97411 4.66193 2.5 5.80653 2.5 7V18C2.5 20.4875 4.5125 22.5 7 22.5H18C19.1935 22.5 20.3381 22.0259 21.182 21.182C22.0259 20.3381 22.5 19.1935 22.5 18V7C22.5 4.5125 20.4875 2.5 18 2.5H7ZM19.0625 4.375C19.4769 4.375 19.8743 4.53962 20.1674 4.83265C20.4604 5.12567 20.625 5.5231 20.625 5.9375C20.625 6.3519 20.4604 6.74933 20.1674 7.04235C19.8743 7.33538 19.4769 7.5 19.0625 7.5C18.6481 7.5 18.2507 7.33538 17.9576 7.04235C17.6646 6.74933 17.5 6.3519 17.5 5.9375C17.5 5.5231 17.6646 5.12567 17.9576 4.83265C18.2507 4.53962 18.6481 4.375 19.0625 4.375ZM12.5 6.25C14.1576 6.25 15.7473 6.90848 16.9194 8.08058C18.0915 9.25269 18.75 10.8424 18.75 12.5C18.75 14.1576 18.0915 15.7473 16.9194 16.9194C15.7473 18.0915 14.1576 18.75 12.5 18.75C10.8424 18.75 9.25269 18.0915 8.08058 16.9194C6.90848 15.7473 6.25 14.1576 6.25 12.5C6.25 10.8424 6.90848 9.25269 8.08058 8.08058C9.25269 6.90848 10.8424 6.25 12.5 6.25M12.5 8.75C11.5054 8.75 10.5516 9.14509 9.84835 9.84835C9.14509 10.5516 8.75 11.5054 8.75 12.5C8.75 13.4946 9.14509 14.4484 9.84835 15.1517C10.5516 15.8549 11.5054 16.25 12.5 16.25C13.4946 16.25 14.4484 15.8549 15.1517 15.1517C15.8549 14.4484 16.25 13.4946 16.25 12.5C16.25 11.5054 15.8549 10.5516 15.1517 9.84835C14.4484 9.14509 13.4946 8.75 12.5 8.75Z"/>
  </symbol>

  <symbol id="instagram-thin" viewBox="0 0 23 23">
    <path fill-rule="evenodd" clip-rule="evenodd" d="M2.73538 2.73332L2.73332 2.73538C2.08189 3.38533 1.69893 4.24369 1.49308 5.64577C1.2809 7.09089 1.27778 8.94253 1.27778 11.4979C1.27778 14.0533 1.2809 15.905 1.49309 17.3506C1.69895 18.7532 2.08201 19.6133 2.73435 20.2656L2.73538 20.2667C3.38533 20.9181 4.24369 21.3011 5.64577 21.5069C7.09089 21.7191 8.94253 21.7222 11.4979 21.7222C14.0533 21.7222 15.905 21.7191 17.3506 21.5069C18.7532 21.3011 19.6133 20.918 20.2656 20.2656C20.9182 19.6131 21.3011 18.7539 21.5069 17.3521C21.7191 15.907 21.7222 14.0554 21.7222 11.4979C21.7222 8.94042 21.7191 7.08879 21.5069 5.64369C21.3012 4.24234 20.9184 3.38316 20.2662 2.73068C19.6138 2.08008 18.7544 1.69797 17.3526 1.49262C15.9072 1.28089 14.0553 1.27778 11.4979 1.27778C8.94039 1.27778 7.08881 1.28091 5.64427 1.49307C4.24305 1.69887 3.38553 2.08169 2.73538 2.73332ZM21.1692 1.82665C23 3.65748 23 6.45585 23 11.4979C23 16.54 23 19.3384 21.1692 21.1692C19.3384 23 16.5358 23 11.4979 23C6.46002 23 3.65748 23 1.83083 21.1692C0 19.3384 0 16.5358 0 11.4979C0 6.46002 0 3.65748 1.83083 1.83083C3.65748 0 6.45585 0 11.4979 0C16.54 0 19.3384 0 21.1692 1.82665Z"/>
    <path fill-rule="evenodd" clip-rule="evenodd" d="M11 15.75C13.0711 15.75 14.75 14.0711 14.75 12C14.75 9.92893 13.0711 8.25 11 8.25C8.92893 8.25 7.25 9.92893 7.25 12C7.25 14.0711 8.92893 15.75 11 15.75ZM11 17C13.7614 17 16 14.7614 16 12C16 9.23858 13.7614 7 11 7C8.23858 7 6 9.23858 6 12C6 14.7614 8.23858 17 11 17Z"/>
    <circle cx="16.5" cy="6.5" r="1.5"/>
  </symbol>

  <symbol id="instagram-word" viewBox="0 0 78 22">
      <path d="M4.01442 0.0771377C2.41795 0.741565 0.662912 2.61865 0.108612 4.97481C-0.593365 7.96014 2.32789 9.22255 2.56749 8.80862C2.8495 8.32225 2.04404 8.15778 1.87824 6.60885C1.66396 4.60827 2.59938 2.37285 3.77664 1.39202C3.99548 1.20979 3.98507 1.46342 3.98507 1.93257C3.98507 2.77151 3.93845 10.3027 3.93845 11.8745C3.93845 14.0013 3.85009 14.6729 3.69142 15.3365C3.53064 16.0091 3.27217 16.4635 3.46802 16.6385C3.68685 16.8343 4.62114 16.3686 5.16202 15.618C5.8106 14.7178 6.03764 13.6368 6.0784 12.4627C6.12764 11.0475 6.12554 8.80175 6.12764 7.52081C6.12961 6.34599 6.14754 2.90587 6.10693 0.8378C6.09697 0.330545 4.68206 -0.201641 4.01434 0.0765208M60.7047 10.0304C60.6532 11.1361 60.407 12.0003 60.1015 12.6099C59.5101 13.7901 58.2828 14.1565 57.7617 12.46C57.4778 11.5353 57.4645 9.99083 57.6686 8.70036C57.8765 7.38574 58.4568 6.39289 59.4177 6.48243C60.3654 6.57094 60.809 7.78518 60.7047 10.0304V10.0304ZM44.727 16.8903C44.7141 18.7275 44.4233 20.3383 43.7997 20.8061C42.9152 21.4695 41.7264 20.9719 41.9726 19.6313C42.1904 18.445 43.2205 17.2335 44.7295 15.7532C44.7295 15.7532 44.7327 16.0908 44.727 16.8903H44.727ZM44.4854 10.0197C44.4313 11.0268 44.1688 12.0384 43.8823 12.6101C43.291 13.7902 42.0548 14.1591 41.5425 12.4602C41.1922 11.2994 41.2761 9.79698 41.4494 8.85035C41.6743 7.62213 42.2194 6.4827 43.1984 6.4827C44.1502 6.4827 44.6196 7.52097 44.4854 10.0198V10.0197ZM35.2295 10.0043C35.1715 11.0709 34.9622 11.9625 34.6264 12.6101C34.0188 13.7821 32.8168 14.1538 32.2866 12.4602C31.9044 11.2389 32.0345 9.57377 32.1935 8.67425C32.4295 7.3394 33.0202 6.39302 33.9425 6.4827C34.8899 6.57472 35.3505 7.78531 35.2295 10.0044V10.0043ZM77.6472 11.2501C77.4156 11.2501 77.3099 11.4875 77.2224 11.887C76.9192 13.2761 76.6004 13.5898 76.1893 13.5898C75.7301 13.5898 75.3175 12.902 75.2114 11.525C75.128 10.4423 75.1414 8.44896 75.248 6.46613C75.2698 6.05873 75.1568 5.65564 74.0578 5.25869C73.5849 5.08794 72.8974 4.83653 72.5552 5.65799C71.5881 7.97877 71.2097 9.82127 71.1207 10.5698C71.1161 10.6085 71.0684 10.6164 71.06 10.5259C71.0032 9.92642 70.8764 8.83704 70.8607 6.54824C70.8576 6.10168 70.7625 5.72156 70.2667 5.41036C69.9451 5.20843 68.9683 4.85129 68.6166 5.27617C68.3118 5.62366 67.9589 6.55881 67.5923 7.66731C67.2942 8.56827 67.0867 9.17774 67.0867 9.17774C67.0867 9.17774 67.0906 6.74679 67.0942 5.82468C67.0957 5.47681 66.8557 5.3609 66.7834 5.33988C66.4577 5.24589 65.8159 5.08886 65.5435 5.08886C65.2074 5.08886 65.1251 5.27566 65.1251 5.54782C65.1251 5.58346 65.0721 8.74841 65.0721 10.9615C65.0721 11.0576 65.0721 11.1625 65.0731 11.2739C64.8872 12.2911 64.2843 13.6718 63.6286 13.6718C62.9722 13.6718 62.6625 13.0946 62.6625 10.4562C62.6625 8.91711 62.709 8.24785 62.7318 7.13466C62.7451 6.49347 62.7707 6.00109 62.7692 5.88935C62.7644 5.5467 62.1685 5.374 61.8912 5.31017C61.6126 5.24581 61.3705 5.22088 61.1814 5.23158C60.9139 5.24659 60.7246 5.42113 60.7246 5.66118C60.7246 5.78988 60.726 6.03463 60.726 6.03463C60.3814 5.49618 59.8271 5.12141 59.4583 5.01281C58.465 4.7195 57.4285 4.97939 56.6467 6.06714C56.0253 6.93142 55.6507 7.91029 55.5033 9.31668C55.3955 10.3449 55.4307 11.3875 55.6222 12.2692C55.3908 13.2642 54.9611 13.6718 54.4906 13.6718C53.8075 13.6718 53.3122 12.5633 53.3698 10.646C53.4077 9.38501 53.6615 8.50005 53.9389 7.21976C54.0572 6.67399 53.9611 6.38825 53.72 6.11439C53.4989 5.86325 53.0279 5.73493 52.3507 5.89275C51.8683 6.00527 51.1787 6.12627 50.5477 6.21921C50.5477 6.21921 50.5858 6.06818 50.6171 5.8019C50.7812 4.40543 49.2549 4.51873 48.768 4.96477C48.4773 5.23106 48.2795 5.54513 48.2044 6.10983C48.0853 7.00595 48.8204 7.42862 48.8204 7.42862C48.5792 8.52629 47.988 9.96021 47.3777 10.9969C47.0508 11.5524 46.8007 11.9639 46.4778 12.4015C46.4766 12.2386 46.4758 12.0757 46.4752 11.9135C46.4678 9.60577 46.4987 7.78951 46.5123 7.13487C46.5256 6.49369 46.5514 6.01437 46.55 5.90263C46.5463 5.652 46.3991 5.55736 46.093 5.43753C45.8223 5.33154 45.5022 5.25818 45.1702 5.23259C44.7511 5.20009 44.4986 5.42109 44.5052 5.68242C44.5065 5.73176 44.5065 6.03473 44.5065 6.03473C44.1618 5.49627 43.6075 5.12151 43.2388 5.0129C42.2454 4.71971 41.2089 4.97961 40.4271 6.06723C39.8059 6.9315 39.399 8.1443 39.2837 9.30607C39.1763 10.3888 39.1962 11.309 39.3425 12.0841C39.1846 12.8603 38.7305 13.6719 38.217 13.6719C37.5606 13.6719 37.1871 13.0947 37.1871 10.4563C37.1871 8.91721 37.2335 8.24795 37.2564 7.13487C37.2696 6.49369 37.2952 6.00118 37.2938 5.88958C37.289 5.54692 36.693 5.37422 36.4158 5.31026C36.1256 5.24356 35.8751 5.21902 35.6828 5.23311C35.429 5.25191 35.2506 5.47787 35.2506 5.64639V6.03473C34.9059 5.49627 34.3517 5.12151 33.9829 5.0129C32.9895 4.71971 31.9588 4.9838 31.1712 6.06723C30.6576 6.77369 30.2418 7.5569 30.0278 9.29066C29.966 9.79169 29.9387 10.2609 29.9422 10.6994C29.7374 11.9447 28.8329 13.3801 28.0929 13.3801C27.6599 13.3801 27.2476 12.545 27.2476 10.7654C27.2476 8.39493 27.3951 5.01982 27.4201 4.69453C27.4201 4.69453 28.355 4.67874 28.536 4.67664C29.0023 4.67155 29.4247 4.68251 30.0458 4.65093C30.3574 4.63513 30.6575 3.52349 30.336 3.38592C30.1902 3.32365 29.1603 3.26909 28.752 3.26047C28.4087 3.25273 27.4529 3.18241 27.4529 3.18241C27.4529 3.18241 27.5386 0.942164 27.5586 0.70551C27.5755 0.50827 27.3189 0.406717 27.1717 0.345096C26.8138 0.194593 26.4936 0.122533 26.114 0.0447359C25.5897 -0.0628195 25.3518 0.0423861 25.3053 0.482419C25.2353 1.15024 25.1991 3.10631 25.1991 3.10631C24.8143 3.10631 23.4998 3.03151 23.1149 3.03151C22.7573 3.03151 22.3713 4.56073 22.8657 4.57952C23.4346 4.60146 24.4259 4.62038 25.0832 4.6401C25.0832 4.6401 25.0539 8.07081 25.0539 9.12998C25.0539 9.24266 25.0549 9.35118 25.0551 9.45647C24.6934 11.331 23.4194 12.3435 23.4194 12.3435C23.693 11.1034 23.1341 10.1722 22.1274 9.38389C21.7565 9.0934 21.0243 8.54346 20.205 7.94082C20.205 7.94082 20.6795 7.47586 21.1003 6.54045C21.3985 5.87785 21.4113 5.11957 20.6795 4.95236C19.4704 4.67589 18.4734 5.55882 18.176 6.50142C17.9456 7.23163 18.0685 7.77348 18.5199 8.33634C18.5528 8.37747 18.5885 8.4195 18.6254 8.46179C18.3525 8.98487 17.9775 9.68911 17.6599 10.2352C16.7785 11.7515 16.1126 12.9509 15.6093 12.9509C15.2071 12.9509 15.2125 11.7332 15.2125 10.5932C15.2125 9.61033 15.2855 8.13271 15.3438 6.60284C15.363 6.09689 15.1086 5.80866 14.6821 5.5476C14.4229 5.389 13.8698 5.07715 13.5494 5.07715C13.07 5.07715 11.6866 5.14202 10.3795 8.9013C10.2148 9.37513 9.89118 10.2385 9.89118 10.2385L9.91903 5.71781C9.91903 5.61183 9.86226 5.50935 9.73225 5.43925C9.51199 5.32034 8.92371 5.07715 8.40061 5.07715C8.15137 5.07715 8.027 5.19241 8.027 5.42215L7.98137 12.4948C7.98137 13.0322 7.99546 13.6591 8.0489 13.9333C8.10214 14.2078 8.18839 14.4312 8.29522 14.5641C8.40189 14.6967 8.52528 14.7978 8.72872 14.8396C8.91806 14.8784 9.95488 15.0107 10.0088 14.6168C10.0733 14.1447 10.0758 13.634 10.6202 11.7295C11.4678 8.76437 12.5729 7.31765 13.0924 6.80386C13.1832 6.71406 13.2869 6.70871 13.2819 6.85568C13.2598 7.50576 13.1818 9.13013 13.1293 10.5102C12.9885 14.2032 13.6642 14.8878 14.6299 14.8878C15.3686 14.8878 16.41 14.1579 17.5263 12.3105C18.2223 11.1592 18.898 10.0303 19.3835 9.21667C19.7219 9.52808 20.1015 9.86324 20.481 10.2213C21.3627 11.0533 21.6522 11.844 21.4601 12.594C21.3132 13.1674 20.7599 13.7583 19.7753 13.184C19.4883 13.0164 19.3658 12.887 19.0772 12.698C18.9222 12.5966 18.6855 12.5662 18.5435 12.6725C18.1749 12.9489 17.964 13.3004 17.8437 13.7356C17.7266 14.1591 18.1531 14.383 18.5953 14.5788C18.976 14.7473 19.7943 14.9 20.3162 14.9174C22.3496 14.985 23.9785 13.9412 25.1124 11.2488C25.3153 13.5741 26.1792 14.8898 27.6801 14.8898C28.6835 14.8898 29.6896 13.6003 30.1295 12.3316C30.2558 12.8488 30.4428 13.2985 30.6842 13.6787C31.8407 15.5006 34.0843 15.1085 35.2113 13.5614C35.5597 13.0834 35.6127 12.9116 35.6127 12.9116C35.7771 14.3724 36.9603 14.8828 37.6377 14.8828C38.3964 14.8828 39.1798 14.5262 39.7289 13.2972C39.7932 13.4306 39.8634 13.558 39.9401 13.6787C41.0966 15.5006 43.3402 15.1084 44.4671 13.5614C44.5203 13.4888 44.5664 13.423 44.6067 13.3639L44.6398 14.3234C44.6398 14.3234 43.9969 14.9098 43.6022 15.2695C41.8653 16.854 40.5445 18.0561 40.4474 19.4559C40.3227 21.2409 41.7786 21.9042 42.8801 21.9912C44.0499 22.0835 45.0516 21.441 45.6674 20.5418C46.2089 19.7504 46.5634 18.0471 46.5374 16.3647C46.527 15.6911 46.51 14.8345 46.4966 13.9163C47.1071 13.2114 47.7949 12.3205 48.4282 11.2777C49.1184 10.1412 49.8581 8.615 50.2368 7.42726C50.2368 7.42726 50.8795 7.43275 51.5653 7.3881C51.7847 7.37388 51.8477 7.41838 51.8072 7.5783C51.7582 7.77148 50.9407 10.9067 51.6868 12.9952C52.1975 14.425 53.3487 14.885 54.0313 14.885C54.8303 14.885 55.5947 14.285 56.0043 13.3942C56.0536 13.4935 56.1052 13.5896 56.1616 13.6783C57.3181 15.5002 59.5538 15.1057 60.6886 13.561C60.9448 13.2125 61.0901 12.9112 61.0901 12.9112C61.3336 14.423 62.5161 14.8901 63.1934 14.8901C63.899 14.8901 64.5685 14.6025 65.1118 13.3244C65.1345 13.8872 65.1702 14.3473 65.2267 14.4924C65.2611 14.5811 65.4616 14.6925 65.6074 14.7463C66.2528 14.9842 66.9111 14.8717 67.1546 14.8227C67.3233 14.7888 67.4549 14.6542 67.4729 14.3067C67.5201 13.3943 67.4911 11.8613 67.7693 10.722C68.2363 8.80989 68.6719 8.06819 68.8786 7.701C68.9942 7.49527 69.1247 7.46133 69.1295 7.67906C69.1392 8.11962 69.1612 9.41336 69.3422 11.1516C69.475 12.4299 69.6525 13.1856 69.7889 13.4247C70.1782 14.1086 70.659 14.1409 71.0505 14.1409C71.2995 14.1409 71.8203 14.0725 71.7737 13.6373C71.751 13.4252 71.7908 12.1142 72.2512 10.2305C72.5519 9.00034 73.0531 7.88882 73.2339 7.48247C73.3006 7.33261 73.3316 7.45074 73.3305 7.47376C73.2925 8.32093 73.207 11.0919 73.5541 12.6074C74.0247 14.6605 75.3858 14.8902 75.8602 14.8902C76.8728 14.8902 77.701 14.1244 77.9799 12.1092C78.0472 11.6242 77.9476 11.2498 77.6495 11.2498"/>
  </symbol>

  <symbol id="phone" viewBox="0 0 30 30">
    <path d="M21.9114 30C9.82881 30 0 20.1712 0 8.08864C0.00256053 6.10946 0.724872 4.19877 2.03224 2.71286C3.33962 1.22695 5.1428 0.267255 7.10554 0.0127368C7.5094 -0.0343362 7.91769 0.0498207 8.27001 0.25276C8.62234 0.4557 8.89999 0.766645 9.06191 1.13961L12.2078 8.47991C12.3295 8.76475 12.379 9.07528 12.3517 9.38385C12.3244 9.69243 12.2212 9.98946 12.0512 10.2485L9.45319 14.2238C9.39231 14.3124 9.3559 14.4155 9.34766 14.5227C9.33941 14.6299 9.35962 14.7373 9.40623 14.8342C10.6398 17.3648 12.6912 19.4052 15.2284 20.6251C15.3225 20.6719 15.4275 20.6923 15.5323 20.6841C15.637 20.6758 15.7376 20.6392 15.8231 20.5781L19.7515 17.9644C20.0104 17.7879 20.3097 17.6797 20.6216 17.6496C20.9334 17.6195 21.2479 17.6685 21.5357 17.7922L28.8604 20.9381C29.2334 21.1 29.5443 21.3777 29.7472 21.73C29.9502 22.0823 30.0343 22.4906 29.9873 22.8945C29.7327 24.8572 28.7731 26.6604 27.2871 27.9678C25.8012 29.2751 23.8905 29.9974 21.9114 30ZM7.34031 1.24916H7.26205C5.60089 1.46569 4.07516 2.27898 2.96938 3.53739C1.86359 4.7958 1.25322 6.41342 1.25208 8.08864C1.25622 13.5666 3.43415 18.8189 7.30762 22.6924C11.1811 26.5658 16.4335 28.7438 21.9114 28.7479C23.5866 28.7468 25.2042 28.1364 26.4626 27.0306C27.721 25.9248 28.5343 24.3991 28.7508 22.7379C28.7639 22.6031 28.7328 22.4676 28.6622 22.3519C28.5917 22.2361 28.4855 22.1465 28.3596 22.0963L21.0349 18.9504C20.9397 18.9081 20.8354 18.8903 20.7316 18.8985C20.6277 18.9067 20.5276 18.9407 20.4402 18.9974L16.5274 21.6111C16.2586 21.7936 15.9467 21.9026 15.6228 21.9274C15.2988 21.9521 14.974 21.8916 14.6806 21.7519C11.8959 20.4024 9.64258 18.1601 8.27936 15.382C8.14046 15.0892 8.07903 14.7656 8.10095 14.4422C8.12287 14.1189 8.22742 13.8066 8.40457 13.5352L11.0026 9.55983C11.0607 9.473 11.0955 9.37272 11.1037 9.26859C11.1119 9.16446 11.0933 9.05996 11.0496 8.96509L7.90374 1.64044C7.85984 1.52627 7.78265 1.42793 7.68219 1.35817C7.58172 1.2884 7.46261 1.25042 7.34031 1.24916Z"/>
  </symbol>

  <symbol id="play" viewBox="0 0 50 64">
    <path fill-rule="evenodd" clip-rule="evenodd" d="M6.18098 0.573361C6.4166 1.07286 6.20269 1.6688 5.70319 1.90442C3.87975 2.76456 2.08377 4.47544 2.00297 6.80035C1.92181 9.13591 3.54447 12.6119 9.82902 17.0587C22.3311 25.9048 41.1967 29.3834 49.0784 30.0031C49.629 30.0464 50.0403 30.5278 49.997 31.0784C49.9849 31.232 49.9387 31.3749 49.8664 31.5C49.9383 31.6244 49.9844 31.7663 49.9968 31.919C50.0415 32.4695 49.6315 32.952 49.081 32.9967C41.2031 33.6367 22.3419 37.23 9.84164 46.3697C3.8145 50.7765 2.05692 54.2765 2.00145 56.7108C2.0009 56.7677 2.00051 56.8248 2.00029 56.8819C2.02388 59.3859 3.87012 61.202 5.71471 62.1011C6.21116 62.3431 6.41744 62.9417 6.17545 63.4381C5.93347 63.9346 5.33485 64.1409 4.8384 63.8989C2.66127 62.8377 0.0823136 60.5132 0.00197866 57H5.9507e-05L0.000267825 56.8876C-0.000257172 56.8185 0.000200472 56.749 0.00165757 56.6792C0.0531599 51.5081 1.34336 47.0585 2.58103 42.9974C2.64097 42.8007 2.70072 42.6051 2.76015 42.4106C3.9414 38.5436 5.00006 35.0779 5.00006 31.5C5.00006 28.2384 3.94383 24.8294 2.7606 21.0106C2.68899 20.7795 2.61693 20.5469 2.5446 20.3127C1.2956 16.2691 5.75401e-05 11.8356 5.73017e-05 6.99999C-0.000308432 6.90984 0.00107785 6.82014 0.0041798 6.73088C0.122126 3.33704 2.6985 1.11042 4.84992 0.0955656C5.34943 -0.140056 5.94536 0.0738603 6.18098 0.573361ZM2.7292 13.393C3.18961 15.553 3.81649 17.6536 4.45552 19.7225C4.53674 19.9854 4.61832 20.2483 4.69984 20.5109C5.85524 24.2336 7.00006 27.9223 7.00006 31.5C7.00006 35.387 5.85782 39.1214 4.70077 42.9041C4.63188 43.1294 4.56293 43.3548 4.49416 43.5804C3.83972 45.7278 3.19314 47.9173 2.72235 50.2231C4.09442 48.4996 6.03634 46.6744 8.6612 44.7552C19.6586 36.7144 35.2496 32.8783 44.6062 31.508C35.2525 30.1819 19.668 26.4705 8.67382 18.6913C6.0499 16.8347 4.10482 15.0661 2.7292 13.393Z"/>
  </symbol>

  <symbol id="search" viewBox="0 0 30 30">
    <path d="M27.7838 26.7251L21.707 20.6497C23.3371 18.7761 24.324 16.3315 24.324 13.6596C24.324 7.77827 19.5391 3 13.662 3C7.77933 3 3 7.78381 3 13.6596C3 19.5355 7.78487 24.3193 13.662 24.3193C16.3344 24.3193 18.7796 23.3326 20.6536 21.7029L26.7303 27.7783C26.8745 27.9224 27.0685 28 27.257 28C27.4456 28 27.6396 27.9279 27.7838 27.7783C28.0721 27.49 28.0721 27.0133 27.7838 26.7251ZM4.49146 13.6596C4.49146 8.60421 8.60546 4.49667 13.6565 4.49667C18.713 4.49667 22.8215 8.60976 22.8215 13.6596C22.8215 18.7095 18.713 22.8282 13.6565 22.8282C8.60546 22.8282 4.49146 18.7151 4.49146 13.6596Z"/>
  </symbol>

  <symbol id="sort" viewBox="0 0 30 30">
    <path d="M26.7293 9.49786C26.6437 9.58375 26.5419 9.65191 26.4298 9.69842C26.3178 9.74492 26.1977 9.76887 26.0763 9.76887C25.955 9.76887 25.8349 9.74492 25.7228 9.69842C25.6108 9.65191 25.509 9.58375 25.4234 9.49786L22.0724 6.15103V21.1545C22.0724 21.3994 21.9751 21.6342 21.8018 21.8073C21.6285 21.9804 21.3935 22.0777 21.1485 22.0777C20.9034 22.0777 20.6684 21.9804 20.4951 21.8073C20.3218 21.6342 20.2245 21.3994 20.2245 21.1545V6.15103L16.8735 9.49786C16.6984 9.66093 16.4667 9.7497 16.2273 9.74548C15.988 9.74126 15.7596 9.64438 15.5903 9.47523C15.421 9.30609 15.324 9.0779 15.3198 8.83873C15.3156 8.59957 15.4044 8.3681 15.5677 8.1931L20.4955 3.26948C20.6689 3.0969 20.9037 3 21.1485 3C21.3932 3 21.628 3.0969 21.8014 3.26948L26.7293 8.1931C26.8151 8.27872 26.8832 8.38042 26.9296 8.49236C26.9761 8.6043 27 8.72429 27 8.84548C27 8.96666 26.9761 9.08665 26.9296 9.19859C26.8832 9.31054 26.8151 9.41223 26.7293 9.49786ZM13.1037 20.5021L9.75277 23.849V8.84548C9.75277 8.60063 9.65542 8.36582 9.48214 8.19269C9.30886 8.01956 9.07385 7.9223 8.82879 7.9223C8.58374 7.9223 8.34872 8.01956 8.17544 8.19269C8.00217 8.36582 7.90482 8.60063 7.90482 8.84548V23.849L4.55387 20.5021C4.37871 20.3391 4.14705 20.2503 3.90768 20.2545C3.6683 20.2587 3.43991 20.3556 3.27063 20.5248C3.10134 20.6939 3.00437 20.9221 3.00014 21.1613C2.99592 21.4004 3.08477 21.6319 3.24798 21.8069L8.17585 26.7305C8.34926 26.9031 8.58404 27 8.82879 27C9.07355 27 9.30833 26.9031 9.48174 26.7305L14.4096 21.8069C14.5728 21.6319 14.6617 21.4004 14.6574 21.1613C14.6532 20.9221 14.5562 20.6939 14.387 20.5248C14.2177 20.3556 13.9893 20.2587 13.7499 20.2545C13.5105 20.2503 13.2789 20.3391 13.1037 20.5021Z"/>
  </symbol>

  <symbol id="user" viewBox="0 0 30 30">
    <path d="M14.89,15.11a6.43,6.43,0,1,1,6.44-6.43A6.44,6.44,0,0,1,14.89,15.11Zm0-11.36a4.93,4.93,0,1,0,4.94,4.93A4.93,4.93,0,0,0,14.89,3.75Z"></path>
    <path d="M25,26a.89.89,0,0,1-.79-.53A10.31,10.31,0,0,0,14.89,19a10.31,10.31,0,0,0-9.3,6.51A.87.87,0,0,1,4.8,26a.78.78,0,0,1-.74-1.07,11.9,11.9,0,0,1,10.83-7.59,11.91,11.91,0,0,1,10.84,7.59A.79.79,0,0,1,25,26Z"></path>
  </symbol>
</svg>
