<svg width="29" height="20" viewBox="0 0 29 20" fill="none" xmlns="http://www.w3.org/2000/svg">
<path fill-rule="evenodd" clip-rule="evenodd" d="M0 0.666992H28.5V2.20608H0V0.666992ZM0 3.74512H28.5V5.2842H0V3.74512ZM0 6.81933H28.5V8.36228H0V6.81933ZM0 9.89745H28.5V11.4365H0V9.89745ZM0 12.9756H28.5V14.5147H0V12.9756ZM0 16.0498H28.5V17.5889H0V16.0498ZM0 19.1279H28.5V20.667H0V19.1279Z" fill="#BD3D44"/>
<path fill-rule="evenodd" clip-rule="evenodd" d="M0 2.20898H28.5V3.74803H0V2.20898ZM0 5.28707H28.5V6.82223H0V5.28707ZM0 8.36132H28.5V9.90036H0V8.36132ZM0 11.4394H28.5V12.9785H0V11.4394ZM0 14.5176H28.5V16.0566H0V14.5176ZM0 17.5918H28.5V19.1309H0V17.5918Z" fill="white"/>
<path fill-rule="evenodd" clip-rule="evenodd" d="M0 0.666992H11.3994V11.4365H0V0.666992Z" fill="#192F5D"/>
<path fill-rule="evenodd" clip-rule="evenodd" d="M0.935074 1.13184L1.03668 1.56934H1.35846L1.09876 1.83834L1.19757 2.27991L0.935074 2.00692L0.675407 2.27588L0.774186 1.83834L0.511719 1.56934H0.839125L0.935074 1.13184ZM2.76686 1.13184L2.86564 1.56934H3.19022L2.92772 1.83834L3.02653 2.27991L2.76686 2.00692L2.50437 2.27588L2.60315 1.83834L2.34348 1.56934H2.66526L2.76686 1.13184ZM4.59582 1.13184L4.69743 1.56938H5.01638L4.75671 1.83838L4.85546 2.27995L4.59299 2.00697L4.33333 2.27592L4.43211 1.83838L4.16961 1.56938H4.49421L4.59582 1.13184ZM6.42761 1.13184L6.52636 1.56938H6.85097L6.58847 1.83838L6.69008 2.27995L6.42758 2.00697L6.16512 2.27592L6.26673 1.83838L6.00423 1.56938H6.326L6.42761 1.13184ZM8.25657 1.13184L8.35818 1.56938H8.67993L8.42026 1.83838L8.51904 2.27995L8.25654 2.00697L7.99688 2.27592L8.09569 1.83838L7.83602 1.56938H8.15776L8.25657 1.13184ZM10.0883 1.13184L10.1871 1.56938H10.5117L10.2492 1.83838L10.3508 2.27995L10.0883 2.00697L9.82584 2.27592L9.92745 1.83838L9.66498 1.56938H9.98956L10.0883 1.13184ZM1.85238 2.23974L1.95116 2.67737H2.27574L2.01324 2.94628L2.10922 3.38391L1.85518 3.11491L1.59272 3.38387L1.68584 2.94633L1.43183 2.67733H1.75361L1.85238 2.23974ZM3.68134 2.23974L3.78295 2.67737H4.1047L3.8422 2.94628L3.94384 3.38391L3.68131 3.11491L3.41885 3.38387L3.52046 2.94633L3.25796 2.67733H3.58253L3.68134 2.23974ZM5.51313 2.23974L5.61188 2.67737H5.93649L5.67399 2.94628L5.77277 3.38391L5.5131 3.11491L5.25064 3.38387L5.34942 2.94637L5.08975 2.67737H5.41152L5.51313 2.23974ZM7.34209 2.23974L7.4437 2.67737H7.76545L7.50295 2.94628L7.60456 3.38391L7.34206 3.11491L7.0824 3.38387L7.18121 2.94633L6.91871 2.67733H7.24611L7.34209 2.23974ZM9.17385 2.23974L9.27263 2.67737H9.59724L9.33474 2.94628L9.43352 3.38391L9.17385 3.11491L8.91136 3.38387L9.01017 2.94633L8.7505 2.67733H9.07225L9.17385 2.23974ZM0.935074 3.34383L1.03668 3.78943H1.35846L1.09876 4.05839L1.19757 4.49597L0.935074 4.22299L0.675407 4.49597L0.774186 4.05436L0.511719 3.78545H0.839125L0.935074 3.34383ZM2.76686 3.34383L2.86564 3.78532H3.19022L2.92772 4.05427L3.02653 4.4919L2.76686 4.21888L2.50437 4.49186L2.60315 4.05029L2.34348 3.78133H2.66526L2.76686 3.34383ZM4.59582 3.34383L4.69743 3.7854H5.01638L4.75671 4.05436L4.85546 4.49199L4.59299 4.21896L4.33333 4.49195L4.43211 4.05038L4.16961 3.78142H4.49421L4.59582 3.34383ZM6.42761 3.34383L6.52636 3.7854H6.85097L6.58847 4.05436L6.69008 4.49199L6.42758 4.21896L6.16512 4.49195L6.26673 4.05038L6.00423 3.78142H6.326L6.42761 3.34383ZM8.25657 3.34383L8.35818 3.7854H8.67993L8.42026 4.05432L8.51904 4.49195L8.25654 4.21892L7.99688 4.4919L8.09569 4.05034L7.83602 3.78138H8.15776L8.25657 3.34383ZM10.0883 3.34383L10.1871 3.7854H10.5117L10.2492 4.05436L10.3508 4.49199L10.0883 4.21896L9.82584 4.49195L9.92745 4.05038L9.66498 3.78142H9.98956L10.0883 3.34383ZM1.85238 4.45178L1.95116 4.88937H2.27574L2.01324 5.15828L2.11205 5.59989L1.85238 5.32691L1.58989 5.59587L1.68867 5.15833L1.429 4.88937H1.75081L1.85238 4.45178ZM3.68134 4.45178L3.78295 4.88937H4.1047L3.8422 5.15828L3.94384 5.59989L3.68131 5.32691L3.41885 5.59587L3.52046 5.15833L3.25796 4.88937H3.58253L3.68134 4.45178ZM5.51313 4.45178L5.61188 4.88937H5.93649L5.67399 5.15828L5.77277 5.59989L5.5131 5.32691L5.25064 5.59587L5.34942 5.15833L5.08975 4.88937H5.41152L5.51313 4.45178ZM7.34209 4.45178L7.4437 4.88937H7.76545L7.50578 5.15828L7.60456 5.59989L7.34206 5.32691L7.0824 5.59587L7.18121 5.15833L6.91871 4.88937H7.24611L7.34209 4.45178ZM9.17385 4.45178L9.27263 4.88937H9.59724L9.33474 5.15828L9.43352 5.59989L9.17385 5.32691L8.91136 5.59587L9.01017 5.15833L8.7505 4.88937H9.07225L9.17385 4.45178ZM0.935074 5.55977L1.03668 5.99736H1.35846L1.09876 6.26627L1.19757 6.70788L0.935074 6.4349L0.675407 6.70386L0.774186 6.26631L0.511719 5.99736H0.839125L0.935074 5.55977ZM2.76686 5.55977L2.86564 5.99736H3.19022L2.92772 6.26627L3.02653 6.7039L2.76686 6.4349L2.50437 6.70386L2.60315 6.26631L2.34348 5.99736H2.66526L2.76686 5.55977ZM4.59582 5.55977L4.69743 5.99736H5.01638L4.75671 6.26627L4.85546 6.70788L4.59299 6.4349L4.33333 6.70386L4.43211 6.26631L4.16961 5.99736H4.49421L4.59582 5.55977ZM6.42761 5.55977L6.52636 5.99736H6.85097L6.58847 6.26627L6.69008 6.70788L6.42758 6.4349L6.16512 6.70386L6.26673 6.26631L6.00423 5.99736H6.326L6.42761 5.55977ZM8.25657 5.55977L8.35818 5.99736H8.67993L8.42026 6.26627L8.51904 6.70788L8.25654 6.4349L7.99688 6.70386L8.09569 6.26631L7.83602 5.99736H8.15776L8.25657 5.55977ZM10.0883 5.55977L10.1871 5.99736H10.5117L10.2492 6.26627L10.3508 6.70788L10.0883 6.4349L9.82584 6.70386L9.92745 6.26631L9.66498 5.99736H9.98956L10.0883 5.55977ZM1.85238 6.66776L1.95116 7.10535H2.27574L2.01324 7.37426L2.11205 7.81189L1.85238 7.53891L1.58989 7.81189L1.68867 7.37028L1.429 7.10132H1.75081L1.85238 6.66776ZM3.68134 6.66776L3.78295 7.10535H4.1047L3.8422 7.37426L3.94384 7.81189L3.68131 7.53891L3.41885 7.81189L3.52046 7.37028L3.25796 7.10132H3.58253L3.68134 6.66776ZM5.51313 6.66776L5.61188 7.10535H5.93649L5.67399 7.37426L5.77277 7.81189L5.5131 7.53891L5.25064 7.81189L5.34942 7.37028L5.08975 7.10132H5.41152L5.51313 6.66776ZM7.34209 6.66776L7.4437 7.10535H7.76545L7.50578 7.37426L7.60456 7.81189L7.34206 7.53891L7.0824 7.81189L7.18121 7.37028L6.91871 7.10132H7.24611L7.34209 6.66776ZM9.17385 6.66776L9.27263 7.10535H9.59724L9.33474 7.37426L9.43352 7.81189L9.17385 7.53891L8.91136 7.81189L9.01017 7.37028L8.7505 7.10132H9.07225L9.17385 6.66776ZM0.935074 7.77173L1.03668 8.21334H1.35846L1.09876 8.48225L1.19757 8.91586L0.935074 8.6469L0.675407 8.91581L0.774186 8.47827L0.511719 8.20931H0.839125L0.935074 7.77173ZM2.76686 7.77173L2.86564 8.21334H3.19022L2.92772 8.48225L3.02936 8.91586L2.76683 8.6469L2.50437 8.91581L2.60598 8.47827L2.34348 8.20931H2.66526L2.76686 7.77173ZM4.59582 7.77173L4.69743 8.21334H5.01638L4.75671 8.48225L4.85546 8.91586L4.59299 8.6469L4.33333 8.91581L4.43211 8.47827L4.16961 8.20931H4.49421L4.59582 7.77173ZM6.42761 7.77173L6.52636 8.21334H6.85097L6.58847 8.48225L6.69008 8.91586L6.42758 8.6469L6.16512 8.91581L6.26673 8.47827L6.00423 8.20931H6.326L6.42761 7.77173ZM8.25657 7.77173L8.35818 8.21334H8.67993L8.42026 8.48225L8.51904 8.91586L8.25654 8.6469L7.99688 8.91581L8.09569 8.47827L7.83602 8.20931H8.15776L8.25657 7.77173ZM10.0883 7.77173L10.1871 8.21334H10.5117L10.2492 8.48225L10.3508 8.91586L10.0883 8.6469L9.82584 8.91581L9.92745 8.47827L9.66498 8.20931H9.98956L10.0883 7.77173ZM1.85238 8.87972L1.95116 9.3173H2.27574L2.01324 9.58626L2.11205 10.0279L1.85238 9.75489L1.58989 10.0238L1.68867 9.58626L1.429 9.3173H1.75081L1.85238 8.87972ZM3.68134 8.87972L3.78295 9.3173H4.1047L3.8422 9.58626L3.94384 10.0279L3.68131 9.75489L3.41885 10.0238L3.52046 9.58626L3.25796 9.3173H3.58253L3.68134 8.87972ZM5.51313 8.87972L5.61188 9.3173H5.93649L5.67399 9.58626L5.77277 10.0279L5.5131 9.75489L5.25064 10.0238L5.34942 9.58626L5.08975 9.3173H5.41152L5.51313 8.87972ZM7.34209 8.87972L7.4437 9.3173H7.76545L7.50578 9.58626L7.60456 10.0279L7.34206 9.75489L7.0824 10.0238L7.18121 9.58626L6.91871 9.3173H7.24611L7.34209 8.87972ZM9.17385 8.87972L9.27263 9.3173H9.59724L9.33474 9.58626L9.43352 10.0279L9.17385 9.75489L8.91136 10.0238L9.01017 9.58626L8.7505 9.3173H9.07225L9.17385 8.87972ZM0.935074 9.98771L1.03668 10.4253H1.35846L1.09876 10.6943L1.19757 11.1318L0.935074 10.8629L0.675407 11.1318L0.774186 10.6902L0.511719 10.4213H0.839125L0.935074 9.98771ZM2.76686 9.98771L2.86564 10.4253H3.19022L2.92772 10.6943L3.02936 11.1318L2.76683 10.8629L2.50437 11.1318L2.60598 10.6902L2.34348 10.4213H2.66526L2.76686 9.98771ZM4.59582 9.98771L4.69743 10.4253H5.01638L4.76234 10.6943L4.86112 11.1318L4.59862 10.8629L4.33896 11.1318L4.43777 10.6902L4.17527 10.4213H4.49985L4.59582 9.98771ZM6.42761 9.98771L6.52636 10.4253H6.85097L6.58847 10.6943L6.69008 11.1318L6.42758 10.8629L6.16512 11.1318L6.26673 10.6902L6.00423 10.4213H6.326L6.42761 9.98771ZM8.25657 9.98771L8.35818 10.4253H8.67993L8.42026 10.6943L8.51904 11.1318L8.25654 10.8629L7.99688 11.1318L8.09569 10.6902L7.83602 10.4213H8.15776L8.25657 9.98771ZM10.0883 9.98771L10.1871 10.4253H10.5117L10.2492 10.6943L10.3508 11.1318L10.0883 10.8629L9.82584 11.1318L9.92745 10.6902L9.66498 10.4213H9.98956L10.0883 9.98771Z" fill="white"/>
</svg>
