<svg width="131" height="32" viewBox="0 0 131 32" fill="none" xmlns="http://www.w3.org/2000/svg">
<path d="M33 15.6493C32.7845 17.9176 31.4346 19.6908 28.6111 20.0109C23.569 20.5843 20.0257 22.5993 19.6911 28.3518C19.5582 30.6247 17.8805 32.0985 15.6666 31.9949C13.7323 31.9051 12.1715 30.7168 12.018 28.4278C11.8484 25.8947 12.8705 24.4784 15.4901 23.9787C19.4574 23.2188 22.297 20.985 23.1656 16.8031C23.9471 13.0425 22.038 10.537 18.2083 10.3851C16.5261 10.3183 14.9057 10.3851 14.4978 8.25263C14.1929 6.67058 15.0295 5.51917 16.4046 5.12538C18.3 4.58421 19.3565 5.8738 20.012 7.47888C21.2863 10.6107 23.679 10.818 26.6217 10.4196C30.5546 9.88765 33.0069 11.8704 33 15.6493Z" fill="#292929"/>
<path d="M0 8.54491C0.195261 6.34289 1.35304 4.68734 3.98791 4.82108C6.89614 4.96865 9.30589 4.60895 10.2271 1.27018C10.4935 0.304064 11.355 -0.205513 12.4576 0.0780976C13.3145 0.308675 13.8727 0.809029 13.9117 1.74287C13.9623 2.9926 13.4201 3.85496 12.1268 3.95411C9.37021 4.15932 8.03555 5.49437 8.18716 8.36275C8.35256 11.4571 10.0961 13.2441 12.7815 14.2402C13.7578 14.5999 14.9202 14.4546 15.8873 14.8281C17.3851 15.4069 18.2075 16.5598 17.9548 18.3006C17.7595 19.6518 16.967 20.5626 15.7403 20.8624C14.1874 21.2428 12.5242 20.8831 12.1567 19.1699C11.0954 14.1687 7.93906 12.6423 3.19768 12.7322C1.11873 12.7714 0.0321606 10.9867 0 8.54491Z" fill="#292929"/>
<path d="M127 10.4482L129.036 4L131 4.69261L128.361 11L127 10.4482Z" fill="#292929"/>
<path d="M51.8401 9C53.9865 9 55.7163 9.60455 57.0298 10.8136C58.3433 12.0227 59 13.596 59 15.5336C59 17.489 58.3534 19.0564 57.0603 20.2356C55.7672 21.4148 54.0272 22.003 51.8401 22H46V9H51.8401ZM51.8401 10.4957H47.6908V20.4998H51.8401C53.5199 20.4998 54.8404 20.052 55.8017 19.1564C56.7629 18.2608 57.2443 17.0464 57.2458 15.5134C57.2458 14.0088 56.7566 12.7967 55.7782 11.8772C54.7997 10.9577 53.4871 10.4994 51.8401 10.5024V10.4957Z" fill="#292929"/>
<path d="M69 22V9H69.8543L78.3614 18.7091V9H80V21.9843H79.1683L70.625 12.2752V21.9843L69 22Z" fill="#292929"/>
<path d="M92 22V9H93.6172V15.4843L101.082 9H103.204L97.9439 13.6195L104 22H102.049L96.7776 14.7353L93.6172 17.3805V22H92Z" fill="#292929"/>
<path d="M111 22L116.451 12H117.506L123 22H121.206L119.811 19.4588H114.153L112.772 22H111ZM114.881 18.1359H119.076L116.99 14.3073L114.881 18.1359Z" fill="#292929"/>
<path d="M71.5911 27.0929C71.4122 27.315 71.1591 27.4688 70.876 27.5276C70.5929 27.5864 70.2976 27.5465 70.0415 27.4149C69.8717 27.3239 69.7309 27.1888 69.6349 27.0245C69.5373 26.862 69.4858 26.677 69.4858 26.4886C69.484 26.3496 69.5115 26.2116 69.5667 26.0833C69.6219 25.9551 69.7035 25.8393 69.8066 25.7433C69.9314 25.6336 70.078 25.5502 70.2372 25.4984C70.3965 25.4465 70.5649 25.4271 70.7322 25.4416C70.8994 25.4561 71.0618 25.5041 71.2092 25.5825C71.3566 25.661 71.4858 25.7683 71.5889 25.8976L71.6205 25.9373L72 25.7168L71.9706 25.6683C71.8905 25.528 71.7822 25.405 71.6521 25.3066C71.5146 25.21 71.3621 25.1355 71.2003 25.0861C71.0211 25.0284 70.8334 24.9994 70.6447 25.0001C70.3549 24.9972 70.069 25.0654 69.8134 25.1986C69.5691 25.3277 69.3659 25.5199 69.2261 25.7543C69.0805 25.986 69.0024 26.2521 69.0002 26.5239C68.997 26.7192 69.0356 26.913 69.1134 27.093C69.1911 27.273 69.3065 27.4351 69.452 27.5692C69.6039 27.7118 69.7834 27.8233 69.9801 27.8971C70.1768 27.971 70.3866 28.0057 70.5972 27.9992C70.8737 28.0049 71.1477 27.9467 71.3969 27.8294C71.6256 27.7221 71.8206 27.5569 71.9616 27.3509L71.9932 27.3046L71.6137 27.062L71.5911 27.0929Z" fill="#292929"/>
<path d="M77.5088 25.0005C77.2994 24.9951 77.0914 25.0353 76.8995 25.1184C76.7075 25.2014 76.5363 25.3253 76.3978 25.4813C76.138 25.7657 75.996 26.137 76.0001 26.521C76.0042 26.9049 76.1542 27.2732 76.4201 27.5521C76.5612 27.694 76.7294 27.8066 76.9147 27.8835C77.1001 27.9604 77.299 28 77.4999 28C77.7008 28 77.8997 27.9604 78.0851 27.8835C78.2704 27.8066 78.4386 27.694 78.5797 27.5521C78.8457 27.2728 78.9958 26.9042 78.9999 26.5199C79.004 26.1356 78.8619 25.7639 78.6019 25.479C78.4654 25.3256 78.297 25.2033 78.1083 25.1207C77.9195 25.0381 77.715 24.9971 77.5088 25.0005ZM77.5088 25.4592C77.6441 25.4584 77.7781 25.4854 77.9024 25.5385C78.0267 25.5917 78.1385 25.6698 78.2309 25.7679C78.3931 25.9344 78.4967 26.1485 78.5264 26.3782C78.556 26.6079 78.51 26.841 78.3953 27.0426C78.3094 27.2002 78.1809 27.3308 78.0243 27.4198C77.8665 27.5064 77.6891 27.5519 77.5088 27.5519C77.3284 27.5519 77.1511 27.5064 76.9933 27.4198C76.8366 27.3308 76.7081 27.2002 76.6222 27.0426C76.5302 26.8821 76.4827 26.7002 76.4845 26.5156C76.4818 26.3772 76.5071 26.2397 76.5591 26.1113C76.611 25.9829 76.6884 25.8661 76.7867 25.7679C76.8782 25.6693 76.9895 25.5908 77.1136 25.5377C77.2376 25.4845 77.3715 25.4577 77.5066 25.4592H77.5088Z" fill="#292929"/>
<path d="M83.5048 27.0185L82.5439 25H82L83.4305 28H83.5791L85 25H84.4561L83.5048 27.0185Z" fill="#292929"/>
<path d="M90.9995 26.5279C91.0086 26.1768 90.8953 25.8332 90.6784 25.5538C90.5396 25.3761 90.3597 25.2332 90.1536 25.1371C89.9475 25.0409 89.7211 24.9941 89.493 25.0006C89.2706 24.994 89.0497 25.0398 88.849 25.1341C88.6482 25.2284 88.4734 25.3686 88.3391 25.5428C88.1166 25.8168 87.9969 26.1577 88.0001 26.5081C87.9992 26.8885 88.1415 27.2558 88.3997 27.5395C88.5396 27.6939 88.7132 27.8153 88.9076 27.8947C89.1019 27.9741 89.312 28.0093 89.5222 27.9979C89.7174 28.0011 89.9115 27.969 90.0947 27.9031C90.2607 27.8378 90.4129 27.7429 90.5437 27.6232C90.691 27.4853 90.8119 27.3226 90.9007 27.1428L90.9254 27.0943L90.5258 26.8871L90.4988 26.9334C90.4193 27.0719 90.3194 27.1981 90.2025 27.3081C90.1062 27.3879 89.9959 27.4499 89.877 27.491C89.7505 27.5373 89.6167 27.5612 89.4818 27.5615C89.3506 27.5647 89.2201 27.5407 89.099 27.4909C88.9779 27.4411 88.8689 27.3668 88.7791 27.2728C88.5994 27.0855 88.4956 26.8402 88.4872 26.583H90.9995V26.5279ZM88.5411 26.1665C88.5938 25.9882 88.6928 25.8264 88.8285 25.6971C89.0126 25.5333 89.2536 25.445 89.502 25.4502C89.6573 25.4501 89.8107 25.484 89.951 25.5494C90.084 25.6076 90.2016 25.695 90.2945 25.805C90.3768 25.9135 90.4378 26.0361 90.4741 26.1665H88.5411Z" fill="#292929"/>
<path d="M94.9565 25.1307C94.8304 25.1957 94.718 25.2755 94.6232 25.3672V25.0721H94V28H94.6232V26.9865C94.6063 26.6669 94.6335 26.3467 94.7043 26.0316C94.7529 25.868 94.8593 25.7182 95.0116 25.5991C95.1195 25.5182 95.2618 25.471 95.4116 25.4663C95.486 25.4697 95.5588 25.4842 95.6261 25.5091L95.6841 25.5293L96 25.1329L95.9333 25.1037C95.7858 25.0316 95.6138 24.9956 95.4396 25.0004C95.2654 25.0052 95.0971 25.0506 94.9565 25.1307Z" fill="#292929"/>
<path d="M103.518 24.9884C103.3 24.9869 103.084 25.0352 102.888 25.1296C102.731 25.2072 102.589 25.3118 102.468 25.4385V24H102V27.9183H102.468V27.53C102.582 27.6592 102.718 27.7675 102.87 27.8499C103.067 27.9509 103.287 28.0024 103.509 27.9999C103.704 28.0014 103.898 27.9631 104.078 27.8872C104.259 27.8113 104.421 27.6995 104.556 27.5587C104.698 27.4214 104.81 27.257 104.887 27.0754C104.963 26.8938 105.001 26.6987 105 26.5019C105.003 26.3047 104.967 26.1089 104.893 25.9259C104.819 25.7429 104.709 25.5764 104.569 25.4363C104.435 25.2924 104.273 25.1782 104.091 25.101C103.91 25.0239 103.715 24.9855 103.518 24.9884ZM104.516 26.4842C104.516 26.6691 104.468 26.8508 104.376 27.0115C104.287 27.1723 104.156 27.3064 103.997 27.3998C103.84 27.4901 103.661 27.5373 103.48 27.5366C103.343 27.5396 103.206 27.5141 103.079 27.4616C102.952 27.4092 102.838 27.3311 102.743 27.2321C102.644 27.1323 102.567 27.0135 102.516 26.8831C102.464 26.7527 102.44 26.6132 102.444 26.4732C102.441 26.2868 102.487 26.1028 102.577 25.9393C102.666 25.7806 102.798 25.6499 102.959 25.562C103.118 25.47 103.3 25.4214 103.484 25.4208C103.664 25.4215 103.84 25.4702 103.995 25.562C104.153 25.6569 104.284 25.7916 104.374 25.9525C104.467 26.1143 104.516 26.2977 104.516 26.4842Z" fill="#292929"/>
<path d="M111.536 25.4696C111.423 25.34 111.287 25.2318 111.135 25.15C110.936 25.0488 110.716 24.9974 110.493 25.0001C110.297 24.9983 110.103 25.0365 109.923 25.1123C109.742 25.1881 109.579 25.3 109.444 25.441C109.302 25.5776 109.19 25.7414 109.113 25.9226C109.037 26.1037 108.999 26.2983 109 26.4946C108.997 26.6921 109.033 26.8884 109.108 27.0716C109.182 27.2549 109.293 27.4214 109.433 27.5615C109.646 27.7785 109.922 27.924 110.222 27.9773C110.523 28.0307 110.832 27.9893 111.108 27.8591C111.268 27.7775 111.413 27.6694 111.536 27.5394V27.9186H112V25.053H111.536V25.4696ZM111.259 25.7562C111.358 25.8561 111.435 25.9748 111.486 26.105C111.538 26.2353 111.562 26.3746 111.558 26.5144C111.561 26.7007 111.515 26.8845 111.425 27.0479C111.336 27.2052 111.205 27.335 111.046 27.4226C110.888 27.5136 110.709 27.5615 110.527 27.5615C110.344 27.5615 110.165 27.5136 110.008 27.4226C109.847 27.3297 109.715 27.1947 109.626 27.0325C109.534 26.872 109.485 26.6904 109.485 26.5056C109.485 26.3208 109.534 26.1393 109.626 25.9788C109.715 25.8184 109.846 25.685 110.005 25.5931C110.163 25.5026 110.342 25.4554 110.525 25.4564C110.66 25.4548 110.794 25.4805 110.918 25.532C111.043 25.5836 111.156 25.6598 111.25 25.7562H111.259Z" fill="#292929"/>
<path d="M116.038 25.4441C116.26 25.4607 116.467 25.5541 116.614 25.7045L116.658 25.742L117 25.4264L116.953 25.3889C116.724 25.1585 116.402 25.0189 116.058 25.0004C115.939 24.9969 115.821 25.0146 115.711 25.0525C115.6 25.0904 115.499 25.1477 115.413 25.2211C115.266 25.3537 115.176 25.5287 115.158 25.7153C115.14 25.9018 115.197 26.0879 115.317 26.2408C115.476 26.4116 115.676 26.5475 115.903 26.6381C116.078 26.7064 116.239 26.8004 116.38 26.9162C116.442 26.9813 116.476 27.0643 116.476 27.1501C116.476 27.2035 116.464 27.2564 116.438 27.3048C116.413 27.3533 116.377 27.3962 116.331 27.4304C116.232 27.5113 116.103 27.5548 115.969 27.5518C115.853 27.5451 115.739 27.516 115.637 27.4665C115.534 27.417 115.444 27.3482 115.374 27.2649L115.327 27.2185L115 27.554L115.032 27.5893C115.144 27.7184 115.288 27.822 115.453 27.8917C115.619 27.9638 115.802 28.0008 115.986 27.9998C116.117 28.0022 116.246 27.9814 116.367 27.9386C116.489 27.8958 116.599 27.8318 116.692 27.7504C116.784 27.6707 116.856 27.5752 116.904 27.4697C116.953 27.3643 116.977 27.251 116.975 27.1369C116.977 26.9695 116.918 26.8062 116.808 26.6712C116.637 26.496 116.425 26.356 116.188 26.2607C116.02 26.1925 115.866 26.0984 115.733 25.9826C115.671 25.9225 115.636 25.8438 115.635 25.7619C115.636 25.7196 115.646 25.678 115.667 25.6399C115.687 25.6019 115.717 25.5682 115.753 25.5412C115.791 25.5089 115.836 25.4838 115.885 25.4671C115.934 25.4505 115.986 25.4426 116.038 25.4441Z" fill="#292929"/>
<path d="M122.497 26.9312C122.419 27.07 122.319 27.1963 122.203 27.3059C122.106 27.3857 121.996 27.4477 121.877 27.4888C121.751 27.5351 121.617 27.559 121.482 27.5593C121.351 27.5625 121.22 27.5384 121.099 27.4887C120.978 27.4389 120.869 27.3646 120.779 27.2706C120.599 27.0837 120.495 26.8381 120.487 26.5808H123V26.5257C123.007 26.1755 122.894 25.8331 122.679 25.5538C122.539 25.3759 122.359 25.233 122.153 25.1368C121.946 25.0406 121.719 24.994 121.491 25.0006C121.269 24.9942 121.048 25.04 120.848 25.1344C120.648 25.2287 120.473 25.3687 120.339 25.5428C120.117 25.8168 119.997 26.1577 120 26.5081C119.999 26.8885 120.141 27.2558 120.4 27.5395C120.54 27.6939 120.713 27.8153 120.908 27.8947C121.102 27.9741 121.312 28.0093 121.522 27.9979C121.717 28.0011 121.912 27.969 122.095 27.9031C122.261 27.8378 122.413 27.7429 122.544 27.6232C122.691 27.4842 122.813 27.3209 122.903 27.1406L122.928 27.0921L122.528 26.8849L122.497 26.9312ZM120.541 26.1643C120.594 25.986 120.693 25.8242 120.829 25.6948C121.012 25.5307 121.254 25.4423 121.502 25.448C121.657 25.4481 121.811 25.482 121.951 25.5472C122.084 25.6054 122.202 25.6928 122.295 25.8028C122.377 25.9113 122.438 26.0339 122.474 26.1643H120.541Z" fill="#292929"/>
</svg>
