<svg xmlns="http://www.w3.org/2000/svg">

  <symbol id="arrowDown" viewBox="0 0 17 17">
    <path d="M13.1671 6.63452L7.99947 11.4165L2.83187 6.63452C2.73954 6.54891 2.6156 6.50098 2.48653 6.50098C2.35747 6.50098 2.23353 6.54891 2.1412 6.63452C2.0965 6.6761 2.06098 6.72573 2.03673 6.78051C2.01249 6.83528 2 6.8941 2 6.95351C2 7.01293 2.01249 7.07174 2.03673 7.12652C2.06098 7.18129 2.0965 7.23092 2.1412 7.2725L7.63863 12.3607C7.73517 12.45 7.86465 12.5 7.99947 12.5C8.13429 12.5 8.26377 12.45 8.36031 12.3607L13.8577 7.27349C13.9028 7.23187 13.9385 7.18212 13.963 7.12716C13.9874 7.07221 14 7.01316 14 6.95351C14 6.89386 13.9874 6.83481 13.963 6.77986C13.9385 6.7249 13.9028 6.67515 13.8577 6.63354C13.7654 6.54793 13.6415 6.5 13.5124 6.5C13.3833 6.5 13.2594 6.54793 13.1671 6.63354V6.63452Z"/>
  </symbol>

  <symbol id="basket" viewBox="0 0 30 30">
    <path d="M26.2 25L24.6 10.2C24.5 9.2 23.6 8.4 22.6 8.4H19.8V7.2C19.8 5.8 19.3 4.5 18.3 3.5C17.3 2.5 16 2 14.6 2C13.2 2 11.9 2.5 10.9 3.5C9.9 4.5 9.4 5.8 9.4 7.2V8.4H6.6C6.1 8.4 5.6 8.6 5.2 9C4.8 9.3 4.6 9.7 4.6 10.2L3 25C3 25.3 3 25.6 3.1 25.8C3.2 26.1 3.3 26.3 3.5 26.5C3.7 26.7 3.9 26.9 4.2 27C4.5 27.1 4.7 27.2 5 27.2H24.2C24.8 27.2 25.3 27 25.7 26.5C26.1 26.1 26.3 25.6 26.2 25ZM10.6 7.2C10.6 6.1 11 5.1 11.8 4.4C12.5 3.6 13.5 3.2 14.6 3.2C15.7 3.2 16.7 3.6 17.4 4.4C18.2 5.1 18.6 6.2 18.6 7.2V8.4H10.6V7.2ZM24.8 25.7C24.7 25.9 24.4 26 24.2 26H5C4.9 26 4.8 26 4.7 25.9C4.6 25.9 4.5 25.8 4.4 25.7C4.3 25.6 4.3 25.6 4.3 25.4C4.3 25.3 4.3 25.2 4.3 25.1L5.9 10.3C5.9 10.1 6 9.9 6.1 9.8C6.2 9.7 6.4 9.6 6.6 9.6H9.4V11.8C9.3 11.8 9.3 11.9 9.3 11.9C9.1 12.1 9 12.4 9 12.7C9 13 9.1 13.3 9.3 13.5C9.7 13.9 10.4 13.9 10.8 13.5C11 13.3 11.1 13 11.1 12.7C11.1 12.4 11 12.1 10.8 11.9L10.7 11.8V9.6H18.7V11.8C18.6 11.8 18.6 11.9 18.6 11.9C18.4 12.1 18.3 12.4 18.3 12.7C18.3 13 18.4 13.3 18.6 13.5C19 13.9 19.7 13.9 20.1 13.5C20.3 13.3 20.4 13 20.4 12.7C20.4 12.4 20.3 12.1 20.1 11.9L20 11.8V9.6H22.6C23 9.6 23.3 9.9 23.4 10.3L25 25.1C25 25.4 24.9 25.6 24.8 25.7Z"/>
  </symbol>

  <symbol id="burger" viewBox="0 0 30 30">
    <path d="M4,5.5H26A1.5,1.5,0,0,1,27.5,7h0A1.5,1.5,0,0,1,26,8.5H4A1.5,1.5,0,0,1,2.5,7h0A1.5,1.5,0,0,1,4,5.5Z"></path>
    <path d="M4,13.5H26A1.5,1.5,0,0,1,27.5,15h0A1.5,1.5,0,0,1,26,16.5H4A1.5,1.5,0,0,1,2.5,15h0A1.5,1.5,0,0,1,4,13.5Z"></path>
    <path d="M4,21.5H26A1.5,1.5,0,0,1,27.5,23h0A1.5,1.5,0,0,1,26,24.5H4A1.5,1.5,0,0,1,2.5,23h0A1.5,1.5,0,0,1,4,21.5Z"></path>
  </symbol>

  <symbol id="catalog" viewBox="0 0 30 30">
    <path d="M26.9531 11.2266V11.2031C26.9531 11.1797 26.9531 11.168 26.9414 11.1562V11.1211C26.9414 11.1094 26.9297 11.0859 26.9297 11.0742L25.2422 5.17969C25.1456 4.83705 24.9401 4.53515 24.6569 4.31952C24.3736 4.1039 24.0279 3.98627 23.6719 3.98438H6.32812C5.97213 3.98627 5.62642 4.1039 5.34315 4.31952C5.05988 4.53515 4.85443 4.83705 4.75781 5.17969L3.07031 11.0625C3.07031 11.0742 3.05859 11.0977 3.05859 11.1094V11.1445C3.04687 11.1562 3.04687 11.168 3.04687 11.1914V13.125C3.0456 13.8364 3.21525 14.5378 3.54155 15.17C3.86784 15.8022 4.34123 16.3467 4.92187 16.7578V24.375C4.92187 24.8101 5.09473 25.2274 5.4024 25.5351C5.71008 25.8428 6.12738 26.0156 6.5625 26.0156H23.4375C23.8726 26.0156 24.2899 25.8428 24.5976 25.5351C24.9053 25.2274 25.0781 24.8101 25.0781 24.375V16.7578C25.6588 16.3467 26.1322 15.8022 26.4585 15.17C26.7847 14.5378 26.9544 13.8364 26.9531 13.125V11.2266ZM6.10547 5.56641C6.11827 5.5168 6.14697 5.47275 6.18718 5.441C6.22739 5.40926 6.2769 5.39156 6.32812 5.39062H23.6719C23.7231 5.39156 23.7726 5.40926 23.8128 5.441C23.853 5.47275 23.8817 5.5168 23.8945 5.56641L25.3125 10.5469H4.6875L6.10547 5.56641ZM11.9531 11.9531H18.0469V13.125C18.0469 13.9331 17.7259 14.7081 17.1545 15.2795C16.5831 15.8509 15.8081 16.1719 15 16.1719C14.1919 16.1719 13.4169 15.8509 12.8455 15.2795C12.2741 14.7081 11.9531 13.9331 11.9531 13.125V11.9531ZM4.45312 11.9531H10.5469V13.125C10.5438 13.9321 10.2218 14.7053 9.65106 15.2761C9.08032 15.8468 8.30713 16.1688 7.5 16.1719C7.00215 16.171 6.5118 16.0504 6.07031 15.8203C6.01517 15.7705 5.95171 15.7309 5.88281 15.7031C5.44584 15.4295 5.08545 15.0494 4.83541 14.5985C4.58536 14.1476 4.45383 13.6406 4.45312 13.125V11.9531ZM23.6719 24.375C23.6719 24.4372 23.6472 24.4968 23.6032 24.5407C23.5593 24.5847 23.4997 24.6094 23.4375 24.6094H6.5625C6.50034 24.6094 6.44073 24.5847 6.39677 24.5407C6.35282 24.4968 6.32812 24.4372 6.32812 24.375V17.4258C6.71097 17.5247 7.10459 17.5759 7.5 17.5781C8.24669 17.5771 8.98121 17.3889 9.63634 17.0306C10.2915 16.6723 10.8463 16.1555 11.25 15.5273C11.6528 16.1564 12.2075 16.6739 12.8628 17.0324C13.5181 17.3909 14.253 17.5788 15 17.5788C15.747 17.5788 16.4819 17.3909 17.1372 17.0324C17.7926 16.6739 18.3472 16.1564 18.75 15.5273C19.1537 16.1555 19.7085 16.6723 20.3637 17.0306C21.0188 17.3889 21.7533 17.5771 22.5 17.5781C22.8954 17.5759 23.289 17.5247 23.6719 17.4258V24.375ZM24.1172 15.7031C24.0483 15.7309 23.9848 15.7705 23.9297 15.8203C23.4882 16.0504 22.9979 16.171 22.5 16.1719C21.6929 16.1688 20.9197 15.8468 20.3489 15.2761C19.7782 14.7053 19.4562 13.9321 19.4531 13.125V11.9531H25.5469V13.125C25.5462 13.6406 25.4146 14.1476 25.1646 14.5985C24.9145 15.0494 24.5542 15.4295 24.1172 15.7031Z"/>
  </symbol>

  <symbol id="heart" viewBox="0 0 30 30">
    <path d="M14.9999 27L14.3999 26.7C13.8999 26.4 13.3999 26 12.6999 25.5C11.4999 24.6 9.6999 23.2 7.8999 21.6C5.8999 19.8 4.1999 18 3.0999 16.3C1.5999 14.2 0.899902 12.3 0.899902 10.7C0.899902 8.2 1.6999 6.2 3.1999 4.9C4.5999 3.6 6.4999 3 8.6999 3C11.1999 3 13.4999 4.2 14.9999 6.2C16.4999 4.2 18.7999 3 21.2999 3C25.5999 3 28.9999 6.4 28.9999 10.7C28.9999 12.3 28.2999 14.2 26.7999 16.2C25.5999 17.8 23.9999 19.6 21.9999 21.5C20.1999 23.2 18.3999 24.6 17.1999 25.5C16.4999 26 15.9999 26.4 15.5999 26.7L14.9999 27ZM8.6999 4.5C6.8999 4.5 5.2999 5 4.2999 6C3.0999 7 2.4999 8.6 2.4999 10.7C2.4999 12.1 3.0999 13.7 4.3999 15.5C5.4999 17.1 6.9999 18.8 8.9999 20.5C10.7999 22.1 12.4999 23.4 13.6999 24.3C14.1999 24.7 14.5999 25 14.9999 25.2C15.2999 25 15.7999 24.6 16.2999 24.2C17.4999 23.3 19.1999 21.9 20.9999 20.3C22.9999 18.5 24.4999 16.8 25.5999 15.3C26.8999 13.5 27.4999 11.9 27.4999 10.7C27.4999 7.3 24.6999 4.5 21.2999 4.5C19.2999 4.5 17.3999 5.5 16.2999 7.1L14.9999 8.7L13.7999 7.1C12.5999 5.5 10.6999 4.5 8.6999 4.5Z"/>
  </symbol>

  <symbol id="instagram" viewBox="0 0 25 25">
    <path d="M7.25 0H17.75C21.75 0 25 3.25 25 7.25V17.75C25 19.6728 24.2362 21.5169 22.8765 22.8765C21.5169 24.2362 19.6728 25 17.75 25H7.25C3.25 25 0 21.75 0 17.75V7.25C0 5.32718 0.763837 3.48311 2.12348 2.12348C3.48311 0.763837 5.32718 0 7.25 0M7 2.5C5.80653 2.5 4.66193 2.97411 3.81802 3.81802C2.97411 4.66193 2.5 5.80653 2.5 7V18C2.5 20.4875 4.5125 22.5 7 22.5H18C19.1935 22.5 20.3381 22.0259 21.182 21.182C22.0259 20.3381 22.5 19.1935 22.5 18V7C22.5 4.5125 20.4875 2.5 18 2.5H7ZM19.0625 4.375C19.4769 4.375 19.8743 4.53962 20.1674 4.83265C20.4604 5.12567 20.625 5.5231 20.625 5.9375C20.625 6.3519 20.4604 6.74933 20.1674 7.04235C19.8743 7.33538 19.4769 7.5 19.0625 7.5C18.6481 7.5 18.2507 7.33538 17.9576 7.04235C17.6646 6.74933 17.5 6.3519 17.5 5.9375C17.5 5.5231 17.6646 5.12567 17.9576 4.83265C18.2507 4.53962 18.6481 4.375 19.0625 4.375ZM12.5 6.25C14.1576 6.25 15.7473 6.90848 16.9194 8.08058C18.0915 9.25269 18.75 10.8424 18.75 12.5C18.75 14.1576 18.0915 15.7473 16.9194 16.9194C15.7473 18.0915 14.1576 18.75 12.5 18.75C10.8424 18.75 9.25269 18.0915 8.08058 16.9194C6.90848 15.7473 6.25 14.1576 6.25 12.5C6.25 10.8424 6.90848 9.25269 8.08058 8.08058C9.25269 6.90848 10.8424 6.25 12.5 6.25M12.5 8.75C11.5054 8.75 10.5516 9.14509 9.84835 9.84835C9.14509 10.5516 8.75 11.5054 8.75 12.5C8.75 13.4946 9.14509 14.4484 9.84835 15.1517C10.5516 15.8549 11.5054 16.25 12.5 16.25C13.4946 16.25 14.4484 15.8549 15.1517 15.1517C15.8549 14.4484 16.25 13.4946 16.25 12.5C16.25 11.5054 15.8549 10.5516 15.1517 9.84835C14.4484 9.14509 13.4946 8.75 12.5 8.75Z"/>
  </symbol>

  <symbol id="search" viewBox="0 0 30 30">
    <path d="M27.7838 26.7251L21.707 20.6497C23.3371 18.7761 24.324 16.3315 24.324 13.6596C24.324 7.77827 19.5391 3 13.662 3C7.77933 3 3 7.78381 3 13.6596C3 19.5355 7.78487 24.3193 13.662 24.3193C16.3344 24.3193 18.7796 23.3326 20.6536 21.7029L26.7303 27.7783C26.8745 27.9224 27.0685 28 27.257 28C27.4456 28 27.6396 27.9279 27.7838 27.7783C28.0721 27.49 28.0721 27.0133 27.7838 26.7251ZM4.49146 13.6596C4.49146 8.60421 8.60546 4.49667 13.6565 4.49667C18.713 4.49667 22.8215 8.60976 22.8215 13.6596C22.8215 18.7095 18.713 22.8282 13.6565 22.8282C8.60546 22.8282 4.49146 18.7151 4.49146 13.6596Z"/>
  </symbol>

  <symbol id="user" viewBox="0 0 30 30">
    <path d="M14.89,15.11a6.43,6.43,0,1,1,6.44-6.43A6.44,6.44,0,0,1,14.89,15.11Zm0-11.36a4.93,4.93,0,1,0,4.94,4.93A4.93,4.93,0,0,0,14.89,3.75Z"></path>
    <path d="M25,26a.89.89,0,0,1-.79-.53A10.31,10.31,0,0,0,14.89,19a10.31,10.31,0,0,0-9.3,6.51A.87.87,0,0,1,4.8,26a.78.78,0,0,1-.74-1.07,11.9,11.9,0,0,1,10.83-7.59,11.91,11.91,0,0,1,10.84,7.59A.79.79,0,0,1,25,26Z"></path>
  </symbol>
</svg>
